<svg xmlns="http://www.w3.org/2000/svg" xmlns:xlink="http://www.w3.org/1999/xlink" width="500" zoomAndPan="magnify" viewBox="0 0 375 374.999991" height="500" preserveAspectRatio="xMidYMid meet" version="1.0"><defs><clipPath id="25ecce4277"><path d="M 167.679688 171.621094 L 207.429688 171.621094 L 207.429688 203.121094 L 167.679688 203.121094 Z M 167.679688 171.621094 " clip-rule="nonzero"/></clipPath></defs><path fill="#ffffff" d="M 185.976562 197.636719 C 186.238281 197.636719 186.453125 197.421875 186.453125 197.160156 C 186.453125 196.894531 186.238281 196.683594 185.976562 196.683594 C 185.714844 196.683594 185.5 196.894531 185.5 197.160156 C 185.5 197.421875 185.714844 197.636719 185.976562 197.636719 Z M 185.976562 197.636719 " fill-opacity="1" fill-rule="nonzero"/><path fill="#ffffff" d="M 178.890625 184.828125 L 184.277344 184.828125 C 184.449219 184.828125 184.589844 184.6875 184.589844 184.515625 L 184.589844 179.132812 C 184.589844 178.957031 184.449219 178.816406 184.277344 178.816406 L 178.890625 178.816406 C 178.714844 178.816406 178.574219 178.957031 178.574219 179.132812 L 178.574219 184.515625 C 178.574219 184.6875 178.714844 184.828125 178.890625 184.828125 Z M 179.203125 179.445312 L 183.964844 179.445312 L 183.964844 184.203125 L 179.203125 184.203125 Z M 179.203125 179.445312 " fill-opacity="1" fill-rule="nonzero"/><path fill="#ffffff" d="M 183.191406 179.902344 L 179.976562 179.902344 C 179.800781 179.902344 179.660156 180.042969 179.660156 180.214844 L 179.660156 183.429688 C 179.660156 183.601562 179.800781 183.742188 179.976562 183.742188 L 183.191406 183.742188 C 183.363281 183.742188 183.503906 183.601562 183.503906 183.429688 L 183.503906 180.214844 C 183.503906 180.042969 183.363281 179.902344 183.191406 179.902344 Z M 183.191406 179.902344 " fill-opacity="1" fill-rule="nonzero"/><g clip-path="url(#25ecce4277)"><path fill="#ffffff" d="M 206.066406 201.042969 L 205.914062 201.042969 L 205.914062 186.992188 C 206.390625 186.902344 206.792969 186.609375 207.027344 186.164062 C 207.3125 185.625 207.28125 185.003906 206.9375 184.5 L 201.800781 176.9375 C 201.742188 176.851562 201.644531 176.800781 201.542969 176.800781 L 186.699219 176.800781 L 183.0625 172.324219 C 182.699219 171.875 182.160156 171.621094 181.582031 171.621094 C 181.007812 171.621094 180.46875 171.875 180.105469 172.324219 L 168.570312 186.515625 C 168.277344 186.875 168.21875 187.359375 168.417969 187.777344 C 168.617188 188.199219 169.03125 188.460938 169.492188 188.460938 C 169.621094 188.460938 169.746094 188.433594 169.863281 188.394531 L 169.863281 201.042969 L 168.832031 201.042969 C 168.195312 201.042969 167.679688 201.558594 167.679688 202.214844 C 167.679688 202.847656 168.195312 203.367188 168.832031 203.367188 L 206.066406 203.367188 C 206.703125 203.367188 207.21875 202.847656 207.21875 202.195312 C 207.21875 201.558594 206.703125 201.042969 206.066406 201.042969 Z M 191.265625 201.042969 L 184.847656 201.042969 L 184.847656 191.847656 L 191.265625 191.847656 Z M 193.300781 201.042969 L 193.300781 188.394531 C 193.421875 188.433594 193.542969 188.460938 193.671875 188.460938 C 194.328125 188.460938 194.863281 187.921875 194.863281 187.261719 C 194.863281 187.179688 194.855469 187.101562 194.839844 187.027344 L 205.285156 187.027344 L 205.285156 201.042969 Z M 168.984375 187.507812 C 168.890625 187.308594 168.914062 187.082031 169.058594 186.910156 L 180.59375 172.71875 C 180.835938 172.421875 181.195312 172.246094 181.582031 172.246094 C 181.96875 172.246094 182.332031 172.421875 182.574219 172.71875 L 194.109375 186.910156 C 194.113281 186.914062 194.140625 186.953125 194.140625 186.957031 C 194.203125 187.046875 194.238281 187.152344 194.238281 187.261719 C 194.238281 187.535156 194.023438 187.832031 193.671875 187.832031 C 193.5 187.832031 193.339844 187.757812 193.230469 187.621094 L 181.824219 173.589844 C 181.765625 173.515625 181.675781 173.472656 181.582031 173.472656 C 181.488281 173.472656 181.398438 173.515625 181.339844 173.589844 L 169.933594 187.621094 C 169.824219 187.753906 169.664062 187.832031 169.492188 187.832031 C 169.269531 187.832031 169.082031 187.710938 168.984375 187.507812 Z M 170.492188 187.929688 L 181.582031 174.285156 L 192.675781 187.929688 L 192.675781 201.042969 L 191.894531 201.042969 L 191.894531 191.53125 C 191.894531 191.359375 191.753906 191.21875 191.578125 191.21875 L 184.535156 191.21875 C 184.359375 191.21875 184.222656 191.359375 184.222656 191.53125 L 184.222656 201.042969 L 170.492188 201.042969 Z M 170.492188 187.929688 " fill-opacity="1" fill-rule="nonzero"/></g><path fill="#ffffff" d="M 204.339844 190.824219 L 194.285156 190.824219 C 194.109375 190.824219 193.96875 190.964844 193.96875 191.136719 L 193.96875 197.703125 C 193.96875 197.875 194.109375 198.015625 194.285156 198.015625 L 204.339844 198.015625 C 204.511719 198.015625 204.652344 197.875 204.652344 197.703125 L 204.652344 191.136719 C 204.652344 190.964844 204.511719 190.824219 204.339844 190.824219 Z M 204.023438 196.128906 L 199.625 196.128906 L 199.625 191.449219 L 204.023438 191.449219 Z M 198.996094 191.449219 L 198.996094 196.128906 L 194.597656 196.128906 L 194.597656 191.449219 Z M 198.996094 191.449219 " fill-opacity="1" fill-rule="nonzero"/><path fill="#ffffff" d="M 182.425781 190.824219 L 172.371094 190.824219 C 172.199219 190.824219 172.058594 190.964844 172.058594 191.136719 L 172.058594 197.703125 C 172.058594 197.875 172.199219 198.015625 172.371094 198.015625 L 182.425781 198.015625 C 182.597656 198.015625 182.738281 197.875 182.738281 197.703125 L 182.738281 191.136719 C 182.738281 190.964844 182.597656 190.824219 182.425781 190.824219 Z M 182.113281 196.128906 L 177.710938 196.128906 L 177.710938 191.449219 L 182.113281 191.449219 Z M 177.085938 191.449219 L 177.085938 196.128906 L 172.683594 196.128906 L 172.683594 191.449219 Z M 177.085938 191.449219 " fill-opacity="1" fill-rule="nonzero"/></svg>