<svg xmlns="http://www.w3.org/2000/svg" xmlns:xlink="http://www.w3.org/1999/xlink" width="280" zoomAndPan="magnify" viewBox="0 0 210 48.75" height="65" preserveAspectRatio="xMidYMid meet" version="1.0"><defs><g/><clipPath id="b5fa642c66"><path d="M 31.574219 0 L 72.617188 0 L 72.617188 32.832031 L 31.574219 32.832031 Z M 31.574219 0 " clip-rule="nonzero"/></clipPath><clipPath id="3cb519325f"><path d="M 27 47 L 185 47 L 185 48.5 L 27 48.5 Z M 27 47 " clip-rule="nonzero"/></clipPath></defs><g fill="#ffffff" fill-opacity="1"><g transform="translate(84.836877, 27.942714)"><g><path d="M 0.28125 0 L 0.28125 -0.125 L 0.515625 -0.21875 C 0.679688 -0.28125 0.789062 -0.359375 0.84375 -0.453125 C 0.90625 -0.554688 0.9375 -0.6875 0.9375 -0.84375 L 0.9375 -7.359375 C 0.9375 -7.523438 0.90625 -7.65625 0.84375 -7.75 C 0.789062 -7.851562 0.679688 -7.9375 0.515625 -8 L 0.28125 -8.09375 L 0.28125 -8.21875 L 3.4375 -8.21875 L 3.4375 -8.09375 L 3.21875 -8 C 3.0625 -7.945312 2.953125 -7.875 2.890625 -7.78125 C 2.835938 -7.6875 2.8125 -7.554688 2.8125 -7.390625 L 2.8125 -4.359375 L 5.796875 -4.359375 L 5.796875 -7.390625 C 5.796875 -7.554688 5.765625 -7.6875 5.703125 -7.78125 C 5.648438 -7.875 5.539062 -7.945312 5.375 -8 L 5.15625 -8.09375 L 5.15625 -8.21875 L 8.328125 -8.21875 L 8.328125 -8.09375 L 8.078125 -8 C 7.921875 -7.9375 7.8125 -7.851562 7.75 -7.75 C 7.695312 -7.65625 7.671875 -7.523438 7.671875 -7.359375 L 7.671875 -0.84375 C 7.671875 -0.6875 7.695312 -0.554688 7.75 -0.453125 C 7.8125 -0.359375 7.921875 -0.28125 8.078125 -0.21875 L 8.328125 -0.125 L 8.328125 0 L 5.15625 0 L 5.15625 -0.125 L 5.375 -0.203125 C 5.539062 -0.265625 5.648438 -0.34375 5.703125 -0.4375 C 5.765625 -0.53125 5.796875 -0.660156 5.796875 -0.828125 L 5.796875 -4.109375 L 2.8125 -4.109375 L 2.8125 -0.828125 C 2.8125 -0.523438 2.945312 -0.316406 3.21875 -0.203125 L 3.4375 -0.125 L 3.4375 0 Z M 0.28125 0 "/></g></g></g><g fill="#ffffff" fill-opacity="1"><g transform="translate(93.893044, 27.942714)"><g><path d="M 4.171875 0.21875 C 3.660156 0.21875 3.171875 0.128906 2.703125 -0.046875 C 2.234375 -0.234375 1.8125 -0.503906 1.4375 -0.859375 C 1.070312 -1.222656 0.78125 -1.675781 0.5625 -2.21875 C 0.351562 -2.757812 0.25 -3.390625 0.25 -4.109375 C 0.25 -4.828125 0.351562 -5.453125 0.5625 -5.984375 C 0.78125 -6.523438 1.078125 -6.972656 1.453125 -7.328125 C 1.828125 -7.691406 2.25 -7.96875 2.71875 -8.15625 C 3.1875 -8.34375 3.671875 -8.4375 4.171875 -8.4375 C 4.679688 -8.4375 5.171875 -8.347656 5.640625 -8.171875 C 6.109375 -7.992188 6.523438 -7.722656 6.890625 -7.359375 C 7.265625 -7.003906 7.554688 -6.550781 7.765625 -6 C 7.984375 -5.457031 8.09375 -4.828125 8.09375 -4.109375 C 8.09375 -3.398438 7.984375 -2.773438 7.765625 -2.234375 C 7.554688 -1.691406 7.265625 -1.238281 6.890625 -0.875 C 6.523438 -0.519531 6.109375 -0.25 5.640625 -0.0625 C 5.171875 0.125 4.679688 0.21875 4.171875 0.21875 Z M 4.171875 -0.03125 C 4.628906 -0.03125 5 -0.148438 5.28125 -0.390625 C 5.5625 -0.640625 5.765625 -1.0625 5.890625 -1.65625 C 6.023438 -2.25 6.09375 -3.066406 6.09375 -4.109375 C 6.09375 -5.148438 6.023438 -5.96875 5.890625 -6.5625 C 5.765625 -7.15625 5.5625 -7.570312 5.28125 -7.8125 C 5 -8.0625 4.628906 -8.1875 4.171875 -8.1875 C 3.722656 -8.1875 3.359375 -8.0625 3.078125 -7.8125 C 2.796875 -7.570312 2.585938 -7.15625 2.453125 -6.5625 C 2.328125 -5.96875 2.265625 -5.148438 2.265625 -4.109375 C 2.265625 -3.066406 2.328125 -2.25 2.453125 -1.65625 C 2.585938 -1.0625 2.796875 -0.640625 3.078125 -0.390625 C 3.359375 -0.148438 3.722656 -0.03125 4.171875 -0.03125 Z M 4.171875 -0.03125 "/></g></g></g><g fill="#ffffff" fill-opacity="1"><g transform="translate(102.687615, 27.942714)"><g><path d="M 4.21875 0.21875 C 3.59375 0.21875 3.035156 0.109375 2.546875 -0.109375 C 2.054688 -0.335938 1.675781 -0.691406 1.40625 -1.171875 C 1.144531 -1.660156 1.015625 -2.300781 1.015625 -3.09375 L 1.015625 -7.390625 C 1.015625 -7.710938 0.847656 -7.921875 0.515625 -8.015625 L 0.25 -8.09375 L 0.25 -8.21875 L 3.703125 -8.21875 L 3.703125 -8.09375 L 3.34375 -8 C 3.03125 -7.914062 2.875 -7.707031 2.875 -7.375 L 2.875 -2.78125 C 2.875 -2.007812 3.035156 -1.4375 3.359375 -1.0625 C 3.679688 -0.695312 4.144531 -0.515625 4.75 -0.515625 C 5.382812 -0.515625 5.882812 -0.707031 6.25 -1.09375 C 6.625 -1.488281 6.8125 -2.039062 6.8125 -2.75 L 6.8125 -7.328125 C 6.8125 -7.492188 6.785156 -7.640625 6.734375 -7.765625 C 6.679688 -7.890625 6.570312 -7.972656 6.40625 -8.015625 L 6.09375 -8.09375 L 6.09375 -8.21875 L 7.828125 -8.21875 L 7.828125 -8.09375 L 7.5 -8 C 7.34375 -7.96875 7.238281 -7.890625 7.1875 -7.765625 C 7.132812 -7.640625 7.109375 -7.492188 7.109375 -7.328125 L 7.109375 -2.78125 C 7.109375 -2.175781 6.988281 -1.644531 6.75 -1.1875 C 6.507812 -0.738281 6.171875 -0.390625 5.734375 -0.140625 C 5.304688 0.0976562 4.800781 0.21875 4.21875 0.21875 Z M 4.21875 0.21875 "/></g></g></g><g fill="#ffffff" fill-opacity="1"><g transform="translate(111.220591, 27.942714)"><g><path d="M 2.953125 0.21875 C 2.492188 0.21875 2.023438 0.160156 1.546875 0.046875 C 1.078125 -0.0546875 0.6875 -0.203125 0.375 -0.390625 L 0.4375 -2.078125 L 0.5625 -2.078125 L 0.953125 -1.265625 C 1.066406 -1.035156 1.1875 -0.832031 1.3125 -0.65625 C 1.445312 -0.476562 1.632812 -0.335938 1.875 -0.234375 C 2.03125 -0.148438 2.1875 -0.09375 2.34375 -0.0625 C 2.5 -0.0390625 2.671875 -0.03125 2.859375 -0.03125 C 3.367188 -0.03125 3.769531 -0.164062 4.0625 -0.4375 C 4.363281 -0.707031 4.515625 -1.0625 4.515625 -1.5 C 4.515625 -1.90625 4.410156 -2.222656 4.203125 -2.453125 C 4.003906 -2.679688 3.6875 -2.898438 3.25 -3.109375 L 2.734375 -3.34375 C 2.023438 -3.65625 1.46875 -4.015625 1.0625 -4.421875 C 0.65625 -4.835938 0.453125 -5.382812 0.453125 -6.0625 C 0.453125 -6.550781 0.578125 -6.972656 0.828125 -7.328125 C 1.085938 -7.691406 1.441406 -7.96875 1.890625 -8.15625 C 2.347656 -8.34375 2.878906 -8.4375 3.484375 -8.4375 C 3.921875 -8.4375 4.335938 -8.378906 4.734375 -8.265625 C 5.128906 -8.148438 5.472656 -7.992188 5.765625 -7.796875 L 5.6875 -6.296875 L 5.5625 -6.296875 L 5.0625 -7.234375 C 4.914062 -7.523438 4.769531 -7.726562 4.625 -7.84375 C 4.488281 -7.96875 4.328125 -8.054688 4.140625 -8.109375 C 4.035156 -8.140625 3.9375 -8.160156 3.84375 -8.171875 C 3.757812 -8.179688 3.644531 -8.1875 3.5 -8.1875 C 3.070312 -8.1875 2.710938 -8.0625 2.421875 -7.8125 C 2.140625 -7.570312 2 -7.25 2 -6.84375 C 2 -6.414062 2.109375 -6.070312 2.328125 -5.8125 C 2.554688 -5.5625 2.882812 -5.335938 3.3125 -5.140625 L 3.890625 -4.890625 C 4.679688 -4.546875 5.25 -4.175781 5.59375 -3.78125 C 5.945312 -3.382812 6.125 -2.875 6.125 -2.25 C 6.125 -1.519531 5.847656 -0.925781 5.296875 -0.46875 C 4.742188 -0.0078125 3.960938 0.21875 2.953125 0.21875 Z M 2.953125 0.21875 "/></g></g></g><g fill="#ffffff" fill-opacity="1"><g transform="translate(118.159087, 27.942714)"><g><path d="M 0.28125 0 L 0.28125 -0.125 L 0.5625 -0.234375 C 0.695312 -0.296875 0.789062 -0.375 0.84375 -0.46875 C 0.90625 -0.5625 0.9375 -0.691406 0.9375 -0.859375 L 0.9375 -7.359375 C 0.9375 -7.523438 0.910156 -7.65625 0.859375 -7.75 C 0.816406 -7.84375 0.71875 -7.921875 0.5625 -7.984375 L 0.28125 -8.09375 L 0.28125 -8.21875 L 6.234375 -8.21875 L 6.3125 -6.296875 L 6.1875 -6.296875 L 5.65625 -7.46875 C 5.582031 -7.625 5.503906 -7.742188 5.421875 -7.828125 C 5.335938 -7.921875 5.210938 -7.96875 5.046875 -7.96875 L 2.796875 -7.96875 L 2.796875 -4.375 L 4.140625 -4.375 C 4.304688 -4.375 4.429688 -4.414062 4.515625 -4.5 C 4.597656 -4.582031 4.675781 -4.703125 4.75 -4.859375 L 5 -5.359375 L 5.125 -5.359375 L 5.125 -3.109375 L 5 -3.109375 L 4.75 -3.640625 C 4.664062 -3.785156 4.582031 -3.898438 4.5 -3.984375 C 4.425781 -4.078125 4.304688 -4.125 4.140625 -4.125 L 2.796875 -4.125 L 2.796875 -0.25 L 5.3125 -0.25 C 5.476562 -0.25 5.609375 -0.289062 5.703125 -0.375 C 5.796875 -0.46875 5.867188 -0.59375 5.921875 -0.75 L 6.4375 -1.921875 L 6.5625 -1.921875 L 6.484375 0 Z M 0.28125 0 "/></g></g></g><g fill="#ffffff" fill-opacity="1"><g transform="translate(125.521118, 27.942714)"><g/></g></g><g fill="#ffffff" fill-opacity="1"><g transform="translate(128.685185, 27.942714)"><g><path d="M 0.28125 0 L 0.28125 -0.125 L 0.53125 -0.21875 C 0.695312 -0.269531 0.804688 -0.34375 0.859375 -0.4375 C 0.910156 -0.53125 0.9375 -0.664062 0.9375 -0.84375 L 0.9375 -7.359375 C 0.9375 -7.523438 0.910156 -7.65625 0.859375 -7.75 C 0.816406 -7.84375 0.71875 -7.921875 0.5625 -7.984375 L 0.28125 -8.09375 L 0.28125 -8.21875 L 3.828125 -8.21875 C 4.816406 -8.21875 5.570312 -8.03125 6.09375 -7.65625 C 6.613281 -7.289062 6.875 -6.78125 6.875 -6.125 C 6.875 -5.757812 6.734375 -5.394531 6.453125 -5.03125 C 6.179688 -4.664062 5.753906 -4.382812 5.171875 -4.1875 L 6.90625 -0.75 C 6.976562 -0.601562 7.0625 -0.488281 7.15625 -0.40625 C 7.25 -0.320312 7.375 -0.242188 7.53125 -0.171875 L 7.703125 -0.109375 L 7.703125 0 L 5.46875 0 L 3.625 -3.921875 L 2.78125 -3.921875 L 2.78125 -0.84375 C 2.78125 -0.6875 2.800781 -0.554688 2.84375 -0.453125 C 2.894531 -0.359375 3 -0.285156 3.15625 -0.234375 L 3.46875 -0.125 L 3.46875 0 Z M 2.78125 -4.171875 L 3.375 -4.171875 C 3.96875 -4.171875 4.394531 -4.328125 4.65625 -4.640625 C 4.925781 -4.960938 5.0625 -5.441406 5.0625 -6.078125 C 5.0625 -6.710938 4.9375 -7.1875 4.6875 -7.5 C 4.445312 -7.8125 4.03125 -7.96875 3.4375 -7.96875 L 2.78125 -7.96875 Z M 2.78125 -4.171875 "/></g></g></g><g fill="#ffffff" fill-opacity="1"><g transform="translate(136.956567, 27.942714)"><g><path d="M 0.28125 0 L 0.28125 -0.125 L 0.5625 -0.234375 C 0.695312 -0.296875 0.789062 -0.375 0.84375 -0.46875 C 0.90625 -0.5625 0.9375 -0.691406 0.9375 -0.859375 L 0.9375 -7.359375 C 0.9375 -7.523438 0.910156 -7.65625 0.859375 -7.75 C 0.816406 -7.84375 0.71875 -7.921875 0.5625 -7.984375 L 0.28125 -8.09375 L 0.28125 -8.21875 L 6.234375 -8.21875 L 6.3125 -6.296875 L 6.1875 -6.296875 L 5.65625 -7.46875 C 5.582031 -7.625 5.503906 -7.742188 5.421875 -7.828125 C 5.335938 -7.921875 5.210938 -7.96875 5.046875 -7.96875 L 2.796875 -7.96875 L 2.796875 -4.375 L 4.140625 -4.375 C 4.304688 -4.375 4.429688 -4.414062 4.515625 -4.5 C 4.597656 -4.582031 4.675781 -4.703125 4.75 -4.859375 L 5 -5.359375 L 5.125 -5.359375 L 5.125 -3.109375 L 5 -3.109375 L 4.75 -3.640625 C 4.664062 -3.785156 4.582031 -3.898438 4.5 -3.984375 C 4.425781 -4.078125 4.304688 -4.125 4.140625 -4.125 L 2.796875 -4.125 L 2.796875 -0.25 L 5.3125 -0.25 C 5.476562 -0.25 5.609375 -0.289062 5.703125 -0.375 C 5.796875 -0.46875 5.867188 -0.59375 5.921875 -0.75 L 6.4375 -1.921875 L 6.5625 -1.921875 L 6.484375 0 Z M 0.28125 0 "/></g></g></g><g fill="#ffffff" fill-opacity="1"><g transform="translate(144.318598, 27.942714)"><g><path d="M 3.53125 0.03125 L 0.875 -7.390625 C 0.8125 -7.554688 0.734375 -7.6875 0.640625 -7.78125 C 0.546875 -7.875 0.414062 -7.945312 0.25 -8 L -0.046875 -8.09375 L -0.046875 -8.21875 L 3.53125 -8.21875 L 3.53125 -8.09375 L 3.15625 -7.984375 C 2.957031 -7.929688 2.847656 -7.84375 2.828125 -7.71875 C 2.804688 -7.59375 2.828125 -7.441406 2.890625 -7.265625 L 4.734375 -1.796875 L 6.59375 -7.265625 C 6.65625 -7.460938 6.679688 -7.625 6.671875 -7.75 C 6.671875 -7.875 6.578125 -7.957031 6.390625 -8 L 6.0625 -8.09375 L 6.0625 -8.21875 L 7.8125 -8.21875 L 7.8125 -8.09375 L 7.46875 -8 C 7.3125 -7.957031 7.195312 -7.882812 7.125 -7.78125 C 7.0625 -7.675781 7.003906 -7.539062 6.953125 -7.375 L 4.453125 0.03125 Z M 3.53125 0.03125 "/></g></g></g><g fill="#ffffff" fill-opacity="1"><g transform="translate(152.639809, 27.942714)"><g><path d="M 0.28125 0 L 0.28125 -0.125 L 0.515625 -0.21875 C 0.679688 -0.28125 0.789062 -0.359375 0.84375 -0.453125 C 0.90625 -0.554688 0.9375 -0.691406 0.9375 -0.859375 L 0.9375 -7.359375 C 0.9375 -7.523438 0.910156 -7.65625 0.859375 -7.75 C 0.804688 -7.851562 0.691406 -7.9375 0.515625 -8 L 0.28125 -8.09375 L 0.28125 -8.21875 L 3.46875 -8.21875 L 3.46875 -8.09375 L 3.21875 -8 C 3.050781 -7.9375 2.941406 -7.851562 2.890625 -7.75 C 2.835938 -7.65625 2.8125 -7.523438 2.8125 -7.359375 L 2.8125 -0.859375 C 2.8125 -0.691406 2.835938 -0.5625 2.890625 -0.46875 C 2.941406 -0.375 3.050781 -0.289062 3.21875 -0.21875 L 3.46875 -0.125 L 3.46875 0 Z M 0.28125 0 "/></g></g></g><g fill="#ffffff" fill-opacity="1"><g transform="translate(156.837796, 27.942714)"><g><path d="M 0.28125 0 L 0.28125 -0.125 L 0.5625 -0.234375 C 0.695312 -0.296875 0.789062 -0.375 0.84375 -0.46875 C 0.90625 -0.5625 0.9375 -0.691406 0.9375 -0.859375 L 0.9375 -7.359375 C 0.9375 -7.523438 0.910156 -7.65625 0.859375 -7.75 C 0.816406 -7.84375 0.71875 -7.921875 0.5625 -7.984375 L 0.28125 -8.09375 L 0.28125 -8.21875 L 6.234375 -8.21875 L 6.3125 -6.296875 L 6.1875 -6.296875 L 5.65625 -7.46875 C 5.582031 -7.625 5.503906 -7.742188 5.421875 -7.828125 C 5.335938 -7.921875 5.210938 -7.96875 5.046875 -7.96875 L 2.796875 -7.96875 L 2.796875 -4.375 L 4.140625 -4.375 C 4.304688 -4.375 4.429688 -4.414062 4.515625 -4.5 C 4.597656 -4.582031 4.675781 -4.703125 4.75 -4.859375 L 5 -5.359375 L 5.125 -5.359375 L 5.125 -3.109375 L 5 -3.109375 L 4.75 -3.640625 C 4.664062 -3.785156 4.582031 -3.898438 4.5 -3.984375 C 4.425781 -4.078125 4.304688 -4.125 4.140625 -4.125 L 2.796875 -4.125 L 2.796875 -0.25 L 5.3125 -0.25 C 5.476562 -0.25 5.609375 -0.289062 5.703125 -0.375 C 5.796875 -0.46875 5.867188 -0.59375 5.921875 -0.75 L 6.4375 -1.921875 L 6.5625 -1.921875 L 6.484375 0 Z M 0.28125 0 "/></g></g></g><g fill="#ffffff" fill-opacity="1"><g transform="translate(164.199827, 27.942714)"><g><path d="M 2.9375 0.03125 L 0.734375 -7.375 C 0.671875 -7.5625 0.609375 -7.695312 0.546875 -7.78125 C 0.484375 -7.875 0.367188 -7.957031 0.203125 -8.03125 L 0.046875 -8.09375 L 0.046875 -8.21875 L 3.34375 -8.21875 L 3.34375 -8.09375 L 3.09375 -8 C 2.894531 -7.914062 2.765625 -7.820312 2.703125 -7.71875 C 2.640625 -7.613281 2.632812 -7.460938 2.6875 -7.265625 L 4.046875 -2.09375 L 5.515625 -6.4375 L 5.234375 -7.328125 C 5.171875 -7.492188 5.113281 -7.625 5.0625 -7.71875 C 5.019531 -7.8125 4.9375 -7.882812 4.8125 -7.9375 L 4.546875 -8.09375 L 4.546875 -8.21875 L 7.671875 -8.21875 L 7.671875 -8.09375 L 7.28125 -7.9375 C 7.113281 -7.882812 7.019531 -7.800781 7 -7.6875 C 6.976562 -7.570312 7 -7.429688 7.0625 -7.265625 L 8.640625 -1.96875 L 10.140625 -7.15625 C 10.191406 -7.351562 10.207031 -7.523438 10.1875 -7.671875 C 10.175781 -7.828125 10.078125 -7.9375 9.890625 -8 L 9.625 -8.09375 L 9.625 -8.21875 L 11.359375 -8.21875 L 11.359375 -8.09375 L 11.03125 -7.96875 C 10.863281 -7.90625 10.742188 -7.8125 10.671875 -7.6875 C 10.609375 -7.570312 10.554688 -7.421875 10.515625 -7.234375 L 8.4375 0.03125 L 7.578125 0.03125 L 5.71875 -5.8125 L 3.796875 0.03125 Z M 2.9375 0.03125 "/></g></g></g><path fill="#ffffff" d="M 50.382812 26.734375 C 50.652344 26.734375 50.871094 26.515625 50.871094 26.242188 C 50.871094 25.972656 50.652344 25.753906 50.382812 25.753906 C 50.113281 25.753906 49.894531 25.972656 49.894531 26.242188 C 49.894531 26.515625 50.113281 26.734375 50.382812 26.734375 Z M 50.382812 26.734375 " fill-opacity="1" fill-rule="nonzero"/><path fill="#ffffff" d="M 43.097656 13.574219 L 48.636719 13.574219 C 48.8125 13.574219 48.957031 13.429688 48.957031 13.25 L 48.957031 7.71875 C 48.957031 7.539062 48.8125 7.394531 48.636719 7.394531 L 43.097656 7.394531 C 42.921875 7.394531 42.777344 7.539062 42.777344 7.71875 L 42.777344 13.25 C 42.777344 13.429688 42.921875 13.574219 43.097656 13.574219 Z M 43.421875 8.039062 L 48.3125 8.039062 L 48.3125 12.929688 L 43.421875 12.929688 Z M 43.421875 8.039062 " fill-opacity="1" fill-rule="nonzero"/><path fill="#ffffff" d="M 47.519531 8.511719 L 44.214844 8.511719 C 44.035156 8.511719 43.890625 8.65625 43.890625 8.832031 L 43.890625 12.136719 C 43.890625 12.3125 44.035156 12.457031 44.214844 12.457031 L 47.519531 12.457031 C 47.699219 12.457031 47.84375 12.3125 47.84375 12.136719 L 47.84375 8.832031 C 47.84375 8.65625 47.699219 8.511719 47.519531 8.511719 Z M 47.519531 8.511719 " fill-opacity="1" fill-rule="nonzero"/><g clip-path="url(#b5fa642c66)"><path fill="#ffffff" d="M 71.027344 30.234375 L 70.871094 30.234375 L 70.871094 15.796875 C 71.359375 15.703125 71.773438 15.402344 72.015625 14.945312 C 72.308594 14.394531 72.273438 13.753906 71.921875 13.234375 L 66.644531 5.464844 C 66.585938 5.375 66.484375 5.324219 66.378906 5.324219 L 51.125 5.324219 L 47.386719 0.722656 C 47.011719 0.265625 46.460938 0 45.867188 0 C 45.277344 0 44.722656 0.265625 44.347656 0.722656 L 32.496094 15.304688 C 32.191406 15.675781 32.132812 16.171875 32.339844 16.605469 C 32.542969 17.035156 32.96875 17.304688 33.445312 17.304688 C 33.578125 17.304688 33.703125 17.277344 33.824219 17.238281 L 33.824219 30.234375 L 32.765625 30.234375 C 32.113281 30.234375 31.582031 30.765625 31.582031 31.4375 C 31.582031 32.089844 32.113281 32.621094 32.765625 32.621094 L 71.027344 32.621094 C 71.679688 32.621094 72.210938 32.089844 72.210938 31.417969 C 72.210938 30.765625 71.679688 30.234375 71.027344 30.234375 Z M 55.816406 30.234375 L 49.222656 30.234375 L 49.222656 20.785156 L 55.816406 20.785156 Z M 57.910156 30.234375 L 57.910156 17.238281 C 58.03125 17.277344 58.15625 17.304688 58.289062 17.304688 C 58.964844 17.304688 59.515625 16.753906 59.515625 16.074219 C 59.515625 15.992188 59.503906 15.910156 59.488281 15.832031 L 70.222656 15.832031 L 70.222656 30.234375 Z M 32.921875 16.328125 C 32.824219 16.121094 32.851562 15.890625 32.996094 15.710938 L 44.847656 1.128906 C 45.097656 0.820312 45.46875 0.644531 45.867188 0.644531 C 46.265625 0.644531 46.636719 0.820312 46.886719 1.128906 L 58.742188 15.710938 C 58.742188 15.714844 58.773438 15.757812 58.773438 15.757812 C 58.835938 15.851562 58.871094 15.960938 58.871094 16.074219 C 58.871094 16.355469 58.648438 16.660156 58.289062 16.660156 C 58.113281 16.660156 57.949219 16.582031 57.839844 16.445312 L 46.117188 2.023438 C 46.054688 1.949219 45.964844 1.902344 45.867188 1.902344 C 45.769531 1.902344 45.675781 1.949219 45.617188 2.023438 L 33.898438 16.445312 C 33.785156 16.582031 33.621094 16.660156 33.445312 16.660156 C 33.214844 16.660156 33.019531 16.535156 32.921875 16.328125 Z M 34.46875 16.761719 L 45.867188 2.738281 L 57.265625 16.761719 L 57.265625 30.234375 L 56.460938 30.234375 L 56.460938 20.460938 C 56.460938 20.285156 56.316406 20.140625 56.140625 20.140625 L 48.898438 20.140625 C 48.722656 20.140625 48.578125 20.285156 48.578125 20.460938 L 48.578125 30.234375 L 34.46875 30.234375 Z M 34.46875 16.761719 " fill-opacity="1" fill-rule="nonzero"/></g><path fill="#ffffff" d="M 69.25 19.734375 L 58.917969 19.734375 C 58.742188 19.734375 58.597656 19.878906 58.597656 20.054688 L 58.597656 26.800781 C 58.597656 26.980469 58.742188 27.125 58.917969 27.125 L 69.25 27.125 C 69.429688 27.125 69.574219 26.980469 69.574219 26.800781 L 69.574219 20.054688 C 69.574219 19.878906 69.429688 19.734375 69.25 19.734375 Z M 68.929688 25.1875 L 64.40625 25.1875 L 64.40625 20.378906 L 68.929688 20.378906 Z M 63.761719 20.378906 L 63.761719 25.1875 L 59.242188 25.1875 L 59.242188 20.378906 Z M 63.761719 20.378906 " fill-opacity="1" fill-rule="nonzero"/><path fill="#ffffff" d="M 46.734375 19.734375 L 36.402344 19.734375 C 36.222656 19.734375 36.078125 19.878906 36.078125 20.054688 L 36.078125 26.800781 C 36.078125 26.980469 36.222656 27.125 36.402344 27.125 L 46.734375 27.125 C 46.910156 27.125 47.054688 26.980469 47.054688 26.800781 L 47.054688 20.054688 C 47.054688 19.878906 46.910156 19.734375 46.734375 19.734375 Z M 46.410156 25.1875 L 41.890625 25.1875 L 41.890625 20.378906 L 46.410156 20.378906 Z M 41.246094 20.378906 L 41.246094 25.1875 L 36.722656 25.1875 L 36.722656 20.378906 Z M 41.246094 20.378906 " fill-opacity="1" fill-rule="nonzero"/><g fill="#ffffff" fill-opacity="1"><g transform="translate(28.590931, 43.144397)"><g><path d="M 2.828125 -4.140625 L 4.546875 0 L 3.59375 0 L 3.21875 -0.890625 L 1.453125 -0.890625 L 1.09375 0 L 0.125 0 L 1.859375 -4.140625 Z M 2.890625 -1.6875 L 2.34375 -3 L 1.796875 -1.6875 Z M 2.890625 -1.6875 "/></g></g></g><g fill="#ffffff" fill-opacity="1"><g transform="translate(34.488815, 43.144397)"><g><path d="M 2.640625 -4.140625 L 2.640625 -1.484375 C 2.640625 -1.316406 2.628906 -1.148438 2.609375 -0.984375 C 2.585938 -0.828125 2.523438 -0.675781 2.421875 -0.53125 C 2.285156 -0.34375 2.117188 -0.195312 1.921875 -0.09375 C 1.734375 0 1.53125 0.046875 1.3125 0.046875 C 1.164062 0.046875 1.023438 0.0195312 0.890625 -0.03125 C 0.753906 -0.0820312 0.628906 -0.148438 0.515625 -0.234375 C 0.398438 -0.328125 0.300781 -0.429688 0.21875 -0.546875 C 0.144531 -0.671875 0.0859375 -0.800781 0.046875 -0.9375 L 0.8125 -1.1875 C 0.84375 -1.070312 0.898438 -0.976562 0.984375 -0.90625 C 1.066406 -0.832031 1.171875 -0.796875 1.296875 -0.796875 C 1.429688 -0.796875 1.535156 -0.84375 1.609375 -0.9375 C 1.679688 -1.03125 1.726562 -1.132812 1.75 -1.25 C 1.75 -1.269531 1.75 -1.320312 1.75 -1.40625 C 1.757812 -1.5 1.765625 -1.613281 1.765625 -1.75 C 1.765625 -1.894531 1.765625 -2.050781 1.765625 -2.21875 C 1.765625 -2.394531 1.765625 -2.570312 1.765625 -2.75 C 1.765625 -3.164062 1.757812 -3.628906 1.75 -4.140625 Z M 2.640625 -4.140625 "/></g></g></g><g fill="#ffffff" fill-opacity="1"><g transform="translate(38.613823, 43.144397)"><g><path d="M 2.625 -4.140625 L 3.5 -4.140625 L 3.5 -1.5 C 3.5 -1.289062 3.457031 -1.085938 3.375 -0.890625 C 3.289062 -0.703125 3.171875 -0.535156 3.015625 -0.390625 C 2.867188 -0.253906 2.695312 -0.140625 2.5 -0.046875 C 2.300781 0.0351562 2.09375 0.078125 1.875 0.078125 C 1.644531 0.078125 1.429688 0.0351562 1.234375 -0.046875 C 1.035156 -0.140625 0.863281 -0.253906 0.71875 -0.390625 C 0.570312 -0.535156 0.457031 -0.703125 0.375 -0.890625 C 0.289062 -1.085938 0.25 -1.289062 0.25 -1.5 L 0.25 -4.140625 L 1.125 -4.140625 L 1.125 -1.671875 C 1.125 -1.554688 1.144531 -1.445312 1.1875 -1.34375 C 1.226562 -1.238281 1.28125 -1.144531 1.34375 -1.0625 C 1.40625 -0.988281 1.484375 -0.925781 1.578125 -0.875 C 1.671875 -0.832031 1.769531 -0.8125 1.875 -0.8125 C 1.976562 -0.8125 2.070312 -0.832031 2.15625 -0.875 C 2.25 -0.925781 2.328125 -0.988281 2.390625 -1.0625 C 2.460938 -1.144531 2.519531 -1.238281 2.5625 -1.34375 C 2.601562 -1.445312 2.625 -1.554688 2.625 -1.671875 Z M 2.625 -4.140625 "/></g></g></g><g fill="#ffffff" fill-opacity="1"><g transform="translate(43.569685, 43.144397)"><g><path d="M 1.953125 -4.140625 C 2.253906 -4.140625 2.519531 -4.082031 2.75 -3.96875 C 2.976562 -3.863281 3.164062 -3.71875 3.3125 -3.53125 C 3.46875 -3.34375 3.585938 -3.125 3.671875 -2.875 C 3.753906 -2.625 3.796875 -2.351562 3.796875 -2.0625 C 3.796875 -1.78125 3.753906 -1.507812 3.671875 -1.25 C 3.585938 -1 3.46875 -0.78125 3.3125 -0.59375 C 3.164062 -0.414062 2.988281 -0.269531 2.78125 -0.15625 C 2.582031 -0.0507812 2.367188 0 2.140625 0 L 0.28125 0 L 0.28125 -4.140625 Z M 1.953125 -0.796875 C 2.117188 -0.796875 2.257812 -0.828125 2.375 -0.890625 C 2.5 -0.960938 2.597656 -1.054688 2.671875 -1.171875 C 2.753906 -1.296875 2.8125 -1.429688 2.84375 -1.578125 C 2.882812 -1.734375 2.90625 -1.894531 2.90625 -2.0625 C 2.90625 -2.226562 2.890625 -2.390625 2.859375 -2.546875 C 2.828125 -2.703125 2.769531 -2.835938 2.6875 -2.953125 C 2.613281 -3.066406 2.515625 -3.160156 2.390625 -3.234375 C 2.265625 -3.304688 2.117188 -3.34375 1.953125 -3.34375 L 1.171875 -3.34375 L 1.171875 -0.796875 Z M 1.953125 -0.796875 "/></g></g></g><g fill="#ffffff" fill-opacity="1"><g transform="translate(48.777146, 43.144397)"><g><path d="M 2.828125 -4.140625 L 4.546875 0 L 3.59375 0 L 3.21875 -0.890625 L 1.453125 -0.890625 L 1.09375 0 L 0.125 0 L 1.859375 -4.140625 Z M 2.890625 -1.6875 L 2.34375 -3 L 1.796875 -1.6875 Z M 2.890625 -1.6875 "/></g></g></g><g fill="#ffffff" fill-opacity="1"><g transform="translate(54.675031, 43.144397)"><g><path d="M 3.109375 -4.140625 L 3.984375 -4.140625 L 3.984375 0 L 3.15625 0 L 1.15625 -2.703125 L 1.15625 0 L 0.28125 0 L 0.28125 -4.140625 L 1.109375 -4.140625 L 3.109375 -1.421875 Z M 3.109375 -4.140625 "/></g></g></g><g fill="#ffffff" fill-opacity="1"><g transform="translate(60.157487, 43.144397)"><g><path d="M 1.953125 -4.140625 C 2.253906 -4.140625 2.519531 -4.082031 2.75 -3.96875 C 2.976562 -3.863281 3.164062 -3.71875 3.3125 -3.53125 C 3.46875 -3.34375 3.585938 -3.125 3.671875 -2.875 C 3.753906 -2.625 3.796875 -2.351562 3.796875 -2.0625 C 3.796875 -1.78125 3.753906 -1.507812 3.671875 -1.25 C 3.585938 -1 3.46875 -0.78125 3.3125 -0.59375 C 3.164062 -0.414062 2.988281 -0.269531 2.78125 -0.15625 C 2.582031 -0.0507812 2.367188 0 2.140625 0 L 0.28125 0 L 0.28125 -4.140625 Z M 1.953125 -0.796875 C 2.117188 -0.796875 2.257812 -0.828125 2.375 -0.890625 C 2.5 -0.960938 2.597656 -1.054688 2.671875 -1.171875 C 2.753906 -1.296875 2.8125 -1.429688 2.84375 -1.578125 C 2.882812 -1.734375 2.90625 -1.894531 2.90625 -2.0625 C 2.90625 -2.226562 2.890625 -2.390625 2.859375 -2.546875 C 2.828125 -2.703125 2.769531 -2.835938 2.6875 -2.953125 C 2.613281 -3.066406 2.515625 -3.160156 2.390625 -3.234375 C 2.265625 -3.304688 2.117188 -3.34375 1.953125 -3.34375 L 1.171875 -3.34375 L 1.171875 -0.796875 Z M 1.953125 -0.796875 "/></g></g></g><g fill="#ffffff" fill-opacity="1"><g transform="translate(65.364947, 43.144397)"><g><path d="M 2.234375 -4.203125 C 2.515625 -4.203125 2.78125 -4.144531 3.03125 -4.03125 C 3.28125 -3.914062 3.492188 -3.757812 3.671875 -3.5625 C 3.859375 -3.375 4.003906 -3.148438 4.109375 -2.890625 C 4.222656 -2.628906 4.28125 -2.351562 4.28125 -2.0625 C 4.28125 -1.78125 4.222656 -1.507812 4.109375 -1.25 C 4.003906 -0.988281 3.859375 -0.757812 3.671875 -0.5625 C 3.492188 -0.363281 3.28125 -0.207031 3.03125 -0.09375 C 2.78125 0.0195312 2.515625 0.078125 2.234375 0.078125 C 1.953125 0.078125 1.6875 0.0195312 1.4375 -0.09375 C 1.1875 -0.207031 0.96875 -0.363281 0.78125 -0.5625 C 0.601562 -0.757812 0.457031 -0.988281 0.34375 -1.25 C 0.238281 -1.507812 0.1875 -1.78125 0.1875 -2.0625 C 0.1875 -2.351562 0.238281 -2.628906 0.34375 -2.890625 C 0.457031 -3.148438 0.601562 -3.375 0.78125 -3.5625 C 0.96875 -3.757812 1.1875 -3.914062 1.4375 -4.03125 C 1.6875 -4.144531 1.953125 -4.203125 2.234375 -4.203125 Z M 2.234375 -0.8125 C 2.390625 -0.8125 2.535156 -0.84375 2.671875 -0.90625 C 2.816406 -0.96875 2.941406 -1.054688 3.046875 -1.171875 C 3.148438 -1.285156 3.234375 -1.421875 3.296875 -1.578125 C 3.359375 -1.734375 3.390625 -1.894531 3.390625 -2.0625 C 3.390625 -2.238281 3.359375 -2.40625 3.296875 -2.5625 C 3.234375 -2.71875 3.148438 -2.851562 3.046875 -2.96875 C 2.941406 -3.082031 2.816406 -3.171875 2.671875 -3.234375 C 2.535156 -3.304688 2.390625 -3.34375 2.234375 -3.34375 C 2.078125 -3.34375 1.925781 -3.304688 1.78125 -3.234375 C 1.644531 -3.171875 1.519531 -3.082031 1.40625 -2.96875 C 1.300781 -2.851562 1.21875 -2.71875 1.15625 -2.5625 C 1.101562 -2.40625 1.078125 -2.238281 1.078125 -2.0625 C 1.078125 -1.894531 1.101562 -1.734375 1.15625 -1.578125 C 1.21875 -1.421875 1.300781 -1.285156 1.40625 -1.171875 C 1.519531 -1.054688 1.644531 -0.96875 1.78125 -0.90625 C 1.925781 -0.84375 2.078125 -0.8125 2.234375 -0.8125 Z M 2.234375 -0.8125 "/></g></g></g><g fill="#ffffff" fill-opacity="1"><g transform="translate(71.052198, 43.144397)"><g/></g></g><g fill="#ffffff" fill-opacity="1"><g transform="translate(73.872412, 43.144397)"><g><path d="M 2.828125 -4.140625 L 4.546875 0 L 3.59375 0 L 3.21875 -0.890625 L 1.453125 -0.890625 L 1.09375 0 L 0.125 0 L 1.859375 -4.140625 Z M 2.890625 -1.6875 L 2.34375 -3 L 1.796875 -1.6875 Z M 2.890625 -1.6875 "/></g></g></g><g fill="#ffffff" fill-opacity="1"><g transform="translate(79.770296, 43.144397)"><g/></g></g><g fill="#ffffff" fill-opacity="1"><g transform="translate(82.59051, 43.144397)"><g><path d="M 0.28125 -4.140625 L 2.859375 -4.140625 L 2.859375 -3.34375 L 1.15625 -3.34375 L 1.15625 -2.59375 L 2.65625 -2.59375 L 2.65625 -1.78125 L 1.15625 -1.78125 L 1.15625 0 L 0.28125 0 Z M 0.28125 -4.140625 "/></g></g></g><g fill="#ffffff" fill-opacity="1"><g transform="translate(86.744773, 43.144397)"><g><path d="M 2.828125 -4.140625 L 4.546875 0 L 3.59375 0 L 3.21875 -0.890625 L 1.453125 -0.890625 L 1.09375 0 L 0.125 0 L 1.859375 -4.140625 Z M 2.890625 -1.6875 L 2.34375 -3 L 1.796875 -1.6875 Z M 2.890625 -1.6875 "/></g></g></g><g fill="#ffffff" fill-opacity="1"><g transform="translate(92.642658, 43.144397)"><g><path d="M 1.484375 -0.8125 L 3.4375 -0.8125 L 3.4375 0 L 0.25 0 L 0.25 -0.59375 L 2.171875 -3.34375 L 0.453125 -3.34375 L 0.453125 -4.140625 L 3.3125 -4.140625 L 3.3125 -3.40625 Z M 1.484375 -0.8125 "/></g></g></g><g fill="#ffffff" fill-opacity="1"><g transform="translate(97.551712, 43.144397)"><g><path d="M 0.28125 -4.140625 L 2.875 -4.140625 L 2.875 -3.34375 L 1.171875 -3.34375 L 1.171875 -2.59375 L 2.671875 -2.59375 L 2.671875 -1.78125 L 1.171875 -1.78125 L 1.171875 -0.796875 L 2.875 -0.796875 L 2.875 0 L 0.28125 0 Z M 0.28125 -4.140625 "/></g></g></g><g fill="#ffffff" fill-opacity="1"><g transform="translate(101.916613, 43.144397)"><g><path d="M 3.25 -2.90625 C 3.25 -2.78125 3.226562 -2.65625 3.1875 -2.53125 C 3.15625 -2.414062 3.101562 -2.304688 3.03125 -2.203125 C 2.96875 -2.109375 2.890625 -2.019531 2.796875 -1.9375 C 2.710938 -1.863281 2.613281 -1.804688 2.5 -1.765625 L 3.875 0 L 2.84375 0 L 1.5625 -1.671875 L 1.15625 -1.671875 L 1.15625 0 L 0.28125 0 L 0.28125 -4.140625 L 2.0625 -4.140625 C 2.226562 -4.140625 2.382812 -4.109375 2.53125 -4.046875 C 2.675781 -3.984375 2.800781 -3.894531 2.90625 -3.78125 C 3.007812 -3.675781 3.09375 -3.546875 3.15625 -3.390625 C 3.21875 -3.242188 3.25 -3.082031 3.25 -2.90625 Z M 1.953125 -2.484375 C 2.066406 -2.484375 2.160156 -2.523438 2.234375 -2.609375 C 2.316406 -2.691406 2.359375 -2.789062 2.359375 -2.90625 C 2.359375 -3.019531 2.316406 -3.117188 2.234375 -3.203125 C 2.160156 -3.296875 2.066406 -3.34375 1.953125 -3.34375 L 1.15625 -3.34375 L 1.15625 -2.484375 Z M 1.953125 -2.484375 "/></g></g></g><g fill="#ffffff" fill-opacity="1"><g transform="translate(107.147476, 43.144397)"><g/></g></g><g fill="#ffffff" fill-opacity="1"><g transform="translate(109.967686, 43.144397)"><g><path d="M 2.828125 -4.140625 L 4.546875 0 L 3.59375 0 L 3.21875 -0.890625 L 1.453125 -0.890625 L 1.09375 0 L 0.125 0 L 1.859375 -4.140625 Z M 2.890625 -1.6875 L 2.34375 -3 L 1.796875 -1.6875 Z M 2.890625 -1.6875 "/></g></g></g><g fill="#ffffff" fill-opacity="1"><g transform="translate(115.865567, 43.144397)"><g/></g></g><g fill="#ffffff" fill-opacity="1"><g transform="translate(118.685777, 43.144397)"><g><path d="M 0.28125 -4.140625 L 2.875 -4.140625 L 2.875 -3.34375 L 1.171875 -3.34375 L 1.171875 -2.59375 L 2.671875 -2.59375 L 2.671875 -1.78125 L 1.171875 -1.78125 L 1.171875 -0.796875 L 2.875 -0.796875 L 2.875 0 L 0.28125 0 Z M 0.28125 -4.140625 "/></g></g></g><g fill="#ffffff" fill-opacity="1"><g transform="translate(123.050677, 43.144397)"><g><path d="M 2.90625 -2.140625 C 3.070312 -2.035156 3.195312 -1.90625 3.28125 -1.75 C 3.363281 -1.601562 3.40625 -1.429688 3.40625 -1.234375 C 3.40625 -1.046875 3.359375 -0.867188 3.265625 -0.703125 C 3.179688 -0.546875 3.0625 -0.40625 2.90625 -0.28125 C 2.75 -0.164062 2.578125 -0.078125 2.390625 -0.015625 C 2.203125 0.0351562 2.003906 0.0664062 1.796875 0.078125 C 1.585938 0.078125 1.382812 0.0507812 1.1875 0 C 1 -0.0625 0.832031 -0.15625 0.6875 -0.28125 C 0.457031 -0.445312 0.304688 -0.644531 0.234375 -0.875 L 1.046875 -1.265625 C 1.046875 -1.222656 1.054688 -1.171875 1.078125 -1.109375 C 1.109375 -1.054688 1.148438 -1 1.203125 -0.9375 C 1.265625 -0.882812 1.34375 -0.835938 1.4375 -0.796875 C 1.53125 -0.765625 1.644531 -0.75 1.78125 -0.75 C 1.894531 -0.75 1.992188 -0.757812 2.078125 -0.78125 C 2.160156 -0.8125 2.226562 -0.847656 2.28125 -0.890625 C 2.34375 -0.929688 2.382812 -0.976562 2.40625 -1.03125 C 2.4375 -1.082031 2.453125 -1.132812 2.453125 -1.1875 C 2.453125 -1.25 2.429688 -1.304688 2.390625 -1.359375 C 2.359375 -1.421875 2.296875 -1.46875 2.203125 -1.5 C 2.046875 -1.550781 1.878906 -1.59375 1.703125 -1.625 C 1.535156 -1.664062 1.367188 -1.710938 1.203125 -1.765625 C 1.046875 -1.828125 0.894531 -1.90625 0.75 -2 C 0.613281 -2.09375 0.503906 -2.222656 0.421875 -2.390625 C 0.347656 -2.535156 0.3125 -2.691406 0.3125 -2.859375 C 0.3125 -3.046875 0.351562 -3.226562 0.4375 -3.40625 C 0.53125 -3.582031 0.648438 -3.726562 0.796875 -3.84375 C 0.941406 -3.957031 1.101562 -4.046875 1.28125 -4.109375 C 1.457031 -4.171875 1.648438 -4.203125 1.859375 -4.203125 C 2.054688 -4.203125 2.242188 -4.171875 2.421875 -4.109375 C 2.597656 -4.054688 2.757812 -3.972656 2.90625 -3.859375 C 3.050781 -3.753906 3.164062 -3.628906 3.25 -3.484375 L 2.578125 -3.03125 C 2.492188 -3.144531 2.390625 -3.234375 2.265625 -3.296875 C 2.148438 -3.367188 2.015625 -3.40625 1.859375 -3.40625 C 1.648438 -3.40625 1.488281 -3.359375 1.375 -3.265625 C 1.257812 -3.171875 1.203125 -3.050781 1.203125 -2.90625 C 1.203125 -2.832031 1.234375 -2.765625 1.296875 -2.703125 C 1.359375 -2.648438 1.441406 -2.601562 1.546875 -2.5625 C 1.648438 -2.519531 1.765625 -2.484375 1.890625 -2.453125 C 2.023438 -2.421875 2.15625 -2.382812 2.28125 -2.34375 C 2.40625 -2.3125 2.523438 -2.28125 2.640625 -2.25 C 2.753906 -2.21875 2.84375 -2.179688 2.90625 -2.140625 Z M 2.90625 -2.140625 "/></g></g></g><g fill="#ffffff" fill-opacity="1"><g transform="translate(127.866114, 43.144397)"><g><path d="M 2.21875 -0.8125 C 2.40625 -0.8125 2.585938 -0.851562 2.765625 -0.9375 C 2.953125 -1.019531 3.132812 -1.164062 3.3125 -1.375 L 3.890625 -0.828125 C 3.660156 -0.523438 3.398438 -0.296875 3.109375 -0.140625 C 2.816406 0.00390625 2.515625 0.078125 2.203125 0.078125 C 1.921875 0.078125 1.65625 0.0195312 1.40625 -0.09375 C 1.164062 -0.207031 0.953125 -0.363281 0.765625 -0.5625 C 0.585938 -0.757812 0.445312 -0.984375 0.34375 -1.234375 C 0.238281 -1.492188 0.1875 -1.769531 0.1875 -2.0625 C 0.1875 -2.351562 0.238281 -2.628906 0.34375 -2.890625 C 0.457031 -3.148438 0.601562 -3.375 0.78125 -3.5625 C 0.96875 -3.757812 1.1875 -3.914062 1.4375 -4.03125 C 1.6875 -4.144531 1.945312 -4.203125 2.21875 -4.203125 C 2.488281 -4.203125 2.738281 -4.148438 2.96875 -4.046875 C 3.207031 -3.953125 3.4375 -3.796875 3.65625 -3.578125 L 3.15625 -2.9375 C 2.988281 -3.09375 2.832031 -3.195312 2.6875 -3.25 C 2.539062 -3.300781 2.382812 -3.328125 2.21875 -3.328125 C 2.0625 -3.328125 1.910156 -3.289062 1.765625 -3.21875 C 1.628906 -3.15625 1.507812 -3.066406 1.40625 -2.953125 C 1.300781 -2.847656 1.21875 -2.71875 1.15625 -2.5625 C 1.09375 -2.40625 1.0625 -2.238281 1.0625 -2.0625 C 1.0625 -1.894531 1.09375 -1.734375 1.15625 -1.578125 C 1.21875 -1.421875 1.300781 -1.285156 1.40625 -1.171875 C 1.507812 -1.054688 1.628906 -0.96875 1.765625 -0.90625 C 1.910156 -0.84375 2.0625 -0.8125 2.21875 -0.8125 Z M 2.21875 -0.8125 "/></g></g></g><g fill="#ffffff" fill-opacity="1"><g transform="translate(133.143782, 43.144397)"><g><path d="M 2.234375 -4.203125 C 2.515625 -4.203125 2.78125 -4.144531 3.03125 -4.03125 C 3.28125 -3.914062 3.492188 -3.757812 3.671875 -3.5625 C 3.859375 -3.375 4.003906 -3.148438 4.109375 -2.890625 C 4.222656 -2.628906 4.28125 -2.351562 4.28125 -2.0625 C 4.28125 -1.78125 4.222656 -1.507812 4.109375 -1.25 C 4.003906 -0.988281 3.859375 -0.757812 3.671875 -0.5625 C 3.492188 -0.363281 3.28125 -0.207031 3.03125 -0.09375 C 2.78125 0.0195312 2.515625 0.078125 2.234375 0.078125 C 1.953125 0.078125 1.6875 0.0195312 1.4375 -0.09375 C 1.1875 -0.207031 0.96875 -0.363281 0.78125 -0.5625 C 0.601562 -0.757812 0.457031 -0.988281 0.34375 -1.25 C 0.238281 -1.507812 0.1875 -1.78125 0.1875 -2.0625 C 0.1875 -2.351562 0.238281 -2.628906 0.34375 -2.890625 C 0.457031 -3.148438 0.601562 -3.375 0.78125 -3.5625 C 0.96875 -3.757812 1.1875 -3.914062 1.4375 -4.03125 C 1.6875 -4.144531 1.953125 -4.203125 2.234375 -4.203125 Z M 2.234375 -0.8125 C 2.390625 -0.8125 2.535156 -0.84375 2.671875 -0.90625 C 2.816406 -0.96875 2.941406 -1.054688 3.046875 -1.171875 C 3.148438 -1.285156 3.234375 -1.421875 3.296875 -1.578125 C 3.359375 -1.734375 3.390625 -1.894531 3.390625 -2.0625 C 3.390625 -2.238281 3.359375 -2.40625 3.296875 -2.5625 C 3.234375 -2.71875 3.148438 -2.851562 3.046875 -2.96875 C 2.941406 -3.082031 2.816406 -3.171875 2.671875 -3.234375 C 2.535156 -3.304688 2.390625 -3.34375 2.234375 -3.34375 C 2.078125 -3.34375 1.925781 -3.304688 1.78125 -3.234375 C 1.644531 -3.171875 1.519531 -3.082031 1.40625 -2.96875 C 1.300781 -2.851562 1.21875 -2.71875 1.15625 -2.5625 C 1.101562 -2.40625 1.078125 -2.238281 1.078125 -2.0625 C 1.078125 -1.894531 1.101562 -1.734375 1.15625 -1.578125 C 1.21875 -1.421875 1.300781 -1.285156 1.40625 -1.171875 C 1.519531 -1.054688 1.644531 -0.96875 1.78125 -0.90625 C 1.925781 -0.84375 2.078125 -0.8125 2.234375 -0.8125 Z M 2.234375 -0.8125 "/></g></g></g><g fill="#ffffff" fill-opacity="1"><g transform="translate(138.831029, 43.144397)"><g><path d="M 1.15625 -0.796875 L 2.859375 -0.796875 L 2.859375 0 L 0.28125 0 L 0.28125 -4.140625 L 1.15625 -4.140625 Z M 1.15625 -0.796875 "/></g></g></g><g fill="#ffffff" fill-opacity="1"><g transform="translate(142.967738, 43.144397)"><g><path d="M 3.0625 -4.140625 L 3.9375 -4.140625 L 3.9375 0 L 3.0625 0 L 3.0625 -1.78125 L 1.15625 -1.78125 L 1.15625 0 L 0.28125 0 L 0.28125 -4.140625 L 1.15625 -4.140625 L 1.15625 -2.59375 L 3.0625 -2.59375 Z M 3.0625 -4.140625 "/></g></g></g><g fill="#ffffff" fill-opacity="1"><g transform="translate(148.403387, 43.144397)"><g><path d="M 2.828125 -4.140625 L 4.546875 0 L 3.59375 0 L 3.21875 -0.890625 L 1.453125 -0.890625 L 1.09375 0 L 0.125 0 L 1.859375 -4.140625 Z M 2.890625 -1.6875 L 2.34375 -3 L 1.796875 -1.6875 Z M 2.890625 -1.6875 "/></g></g></g><g fill="#ffffff" fill-opacity="1"><g transform="translate(154.301268, 43.144397)"><g/></g></g><g fill="#ffffff" fill-opacity="1"><g transform="translate(157.121485, 43.144397)"><g><path d="M 2.21875 -0.8125 C 2.40625 -0.8125 2.585938 -0.851562 2.765625 -0.9375 C 2.953125 -1.019531 3.132812 -1.164062 3.3125 -1.375 L 3.890625 -0.828125 C 3.660156 -0.523438 3.398438 -0.296875 3.109375 -0.140625 C 2.816406 0.00390625 2.515625 0.078125 2.203125 0.078125 C 1.921875 0.078125 1.65625 0.0195312 1.40625 -0.09375 C 1.164062 -0.207031 0.953125 -0.363281 0.765625 -0.5625 C 0.585938 -0.757812 0.445312 -0.984375 0.34375 -1.234375 C 0.238281 -1.492188 0.1875 -1.769531 0.1875 -2.0625 C 0.1875 -2.351562 0.238281 -2.628906 0.34375 -2.890625 C 0.457031 -3.148438 0.601562 -3.375 0.78125 -3.5625 C 0.96875 -3.757812 1.1875 -3.914062 1.4375 -4.03125 C 1.6875 -4.144531 1.945312 -4.203125 2.21875 -4.203125 C 2.488281 -4.203125 2.738281 -4.148438 2.96875 -4.046875 C 3.207031 -3.953125 3.4375 -3.796875 3.65625 -3.578125 L 3.15625 -2.9375 C 2.988281 -3.09375 2.832031 -3.195312 2.6875 -3.25 C 2.539062 -3.300781 2.382812 -3.328125 2.21875 -3.328125 C 2.0625 -3.328125 1.910156 -3.289062 1.765625 -3.21875 C 1.628906 -3.15625 1.507812 -3.066406 1.40625 -2.953125 C 1.300781 -2.847656 1.21875 -2.71875 1.15625 -2.5625 C 1.09375 -2.40625 1.0625 -2.238281 1.0625 -2.0625 C 1.0625 -1.894531 1.09375 -1.734375 1.15625 -1.578125 C 1.21875 -1.421875 1.300781 -1.285156 1.40625 -1.171875 C 1.507812 -1.054688 1.628906 -0.96875 1.765625 -0.90625 C 1.910156 -0.84375 2.0625 -0.8125 2.21875 -0.8125 Z M 2.21875 -0.8125 "/></g></g></g><g fill="#ffffff" fill-opacity="1"><g transform="translate(162.399161, 43.144397)"><g><path d="M 0.28125 -4.140625 L 2.875 -4.140625 L 2.875 -3.34375 L 1.171875 -3.34375 L 1.171875 -2.59375 L 2.671875 -2.59375 L 2.671875 -1.78125 L 1.171875 -1.78125 L 1.171875 -0.796875 L 2.875 -0.796875 L 2.875 0 L 0.28125 0 Z M 0.28125 -4.140625 "/></g></g></g><g fill="#ffffff" fill-opacity="1"><g transform="translate(166.764069, 43.144397)"><g><path d="M 3.25 -2.90625 C 3.25 -2.78125 3.226562 -2.65625 3.1875 -2.53125 C 3.15625 -2.414062 3.101562 -2.304688 3.03125 -2.203125 C 2.96875 -2.109375 2.890625 -2.019531 2.796875 -1.9375 C 2.710938 -1.863281 2.613281 -1.804688 2.5 -1.765625 L 3.875 0 L 2.84375 0 L 1.5625 -1.671875 L 1.15625 -1.671875 L 1.15625 0 L 0.28125 0 L 0.28125 -4.140625 L 2.0625 -4.140625 C 2.226562 -4.140625 2.382812 -4.109375 2.53125 -4.046875 C 2.675781 -3.984375 2.800781 -3.894531 2.90625 -3.78125 C 3.007812 -3.675781 3.09375 -3.546875 3.15625 -3.390625 C 3.21875 -3.242188 3.25 -3.082031 3.25 -2.90625 Z M 1.953125 -2.484375 C 2.066406 -2.484375 2.160156 -2.523438 2.234375 -2.609375 C 2.316406 -2.691406 2.359375 -2.789062 2.359375 -2.90625 C 2.359375 -3.019531 2.316406 -3.117188 2.234375 -3.203125 C 2.160156 -3.296875 2.066406 -3.34375 1.953125 -3.34375 L 1.15625 -3.34375 L 1.15625 -2.484375 Z M 1.953125 -2.484375 "/></g></g></g><g fill="#ffffff" fill-opacity="1"><g transform="translate(171.994933, 43.144397)"><g><path d="M 0.140625 -4.140625 L 3.125 -4.140625 L 3.125 -3.34375 L 2.078125 -3.34375 L 2.078125 0 L 1.1875 0 L 1.1875 -3.34375 L 0.140625 -3.34375 Z M 0.140625 -4.140625 "/></g></g></g><g fill="#ffffff" fill-opacity="1"><g transform="translate(176.476857, 43.144397)"><g><path d="M 2.828125 -4.140625 L 4.546875 0 L 3.59375 0 L 3.21875 -0.890625 L 1.453125 -0.890625 L 1.09375 0 L 0.125 0 L 1.859375 -4.140625 Z M 2.890625 -1.6875 L 2.34375 -3 L 1.796875 -1.6875 Z M 2.890625 -1.6875 "/></g></g></g><g clip-path="url(#3cb519325f)"><path stroke-linecap="butt" transform="matrix(0.746173, 0.000000000000000203, -0.000000000000000203, 0.746173, 27.835385, 47.707269)" fill="none" stroke-linejoin="miter" d="M 0.000740025 0.502246 L 208.931303 0.502246 " stroke="#ffffff" stroke-width="1" stroke-opacity="1" stroke-miterlimit="4"/></g></svg>