<svg xmlns="http://www.w3.org/2000/svg" xmlns:xlink="http://www.w3.org/1999/xlink" width="500" zoomAndPan="magnify" viewBox="0 0 375 374.999991" height="500" preserveAspectRatio="xMidYMid meet" version="1.0"><defs><g/><clipPath id="0be195f709"><path d="M 116.171875 185.519531 L 155.921875 185.519531 L 155.921875 217.019531 L 116.171875 217.019531 Z M 116.171875 185.519531 " clip-rule="nonzero"/></clipPath></defs><g fill="#ffffff" fill-opacity="1"><g transform="translate(167.99538, 212.707333)"><g><path d="M 0.265625 0 L 0.265625 -0.125 L 0.515625 -0.21875 C 0.671875 -0.269531 0.773438 -0.34375 0.828125 -0.4375 C 0.878906 -0.539062 0.90625 -0.671875 0.90625 -0.828125 L 0.90625 -7.171875 C 0.90625 -7.328125 0.878906 -7.453125 0.828125 -7.546875 C 0.773438 -7.648438 0.671875 -7.726562 0.515625 -7.78125 L 0.265625 -7.875 L 0.265625 -8 L 3.34375 -8 L 3.34375 -7.875 L 3.140625 -7.796875 C 2.984375 -7.742188 2.875 -7.671875 2.8125 -7.578125 C 2.757812 -7.484375 2.734375 -7.351562 2.734375 -7.1875 L 2.734375 -4.25 L 5.640625 -4.25 L 5.640625 -7.1875 C 5.640625 -7.351562 5.613281 -7.484375 5.5625 -7.578125 C 5.507812 -7.671875 5.398438 -7.742188 5.234375 -7.796875 L 5.015625 -7.875 L 5.015625 -8 L 8.109375 -8 L 8.109375 -7.875 L 7.875 -7.78125 C 7.71875 -7.726562 7.609375 -7.648438 7.546875 -7.546875 C 7.492188 -7.453125 7.46875 -7.328125 7.46875 -7.171875 L 7.46875 -0.828125 C 7.46875 -0.671875 7.492188 -0.539062 7.546875 -0.4375 C 7.609375 -0.34375 7.71875 -0.269531 7.875 -0.21875 L 8.109375 -0.125 L 8.109375 0 L 5.015625 0 L 5.015625 -0.125 L 5.234375 -0.1875 C 5.398438 -0.257812 5.507812 -0.335938 5.5625 -0.421875 C 5.613281 -0.515625 5.640625 -0.644531 5.640625 -0.8125 L 5.640625 -4 L 2.734375 -4 L 2.734375 -0.8125 C 2.734375 -0.507812 2.867188 -0.300781 3.140625 -0.1875 L 3.34375 -0.125 L 3.34375 0 Z M 0.265625 0 "/></g></g></g><g fill="#ffffff" fill-opacity="1"><g transform="translate(176.807376, 212.707333)"><g><path d="M 4.0625 0.21875 C 3.570312 0.21875 3.097656 0.128906 2.640625 -0.046875 C 2.179688 -0.222656 1.769531 -0.488281 1.40625 -0.84375 C 1.050781 -1.195312 0.769531 -1.632812 0.5625 -2.15625 C 0.351562 -2.6875 0.25 -3.300781 0.25 -4 C 0.25 -4.695312 0.351562 -5.304688 0.5625 -5.828125 C 0.769531 -6.359375 1.054688 -6.796875 1.421875 -7.140625 C 1.785156 -7.492188 2.191406 -7.757812 2.640625 -7.9375 C 3.097656 -8.125 3.570312 -8.21875 4.0625 -8.21875 C 4.550781 -8.21875 5.023438 -8.128906 5.484375 -7.953125 C 5.941406 -7.785156 6.347656 -7.523438 6.703125 -7.171875 C 7.066406 -6.816406 7.351562 -6.375 7.5625 -5.84375 C 7.769531 -5.320312 7.875 -4.707031 7.875 -4 C 7.875 -3.3125 7.769531 -2.703125 7.5625 -2.171875 C 7.351562 -1.640625 7.066406 -1.195312 6.703125 -0.84375 C 6.347656 -0.5 5.941406 -0.234375 5.484375 -0.046875 C 5.023438 0.128906 4.550781 0.21875 4.0625 0.21875 Z M 4.0625 -0.03125 C 4.507812 -0.03125 4.867188 -0.148438 5.140625 -0.390625 C 5.410156 -0.628906 5.609375 -1.035156 5.734375 -1.609375 C 5.859375 -2.191406 5.921875 -2.988281 5.921875 -4 C 5.921875 -5.019531 5.859375 -5.816406 5.734375 -6.390625 C 5.609375 -6.972656 5.410156 -7.382812 5.140625 -7.625 C 4.867188 -7.863281 4.507812 -7.984375 4.0625 -7.984375 C 3.625 -7.984375 3.265625 -7.863281 2.984375 -7.625 C 2.710938 -7.382812 2.515625 -6.972656 2.390625 -6.390625 C 2.265625 -5.816406 2.203125 -5.019531 2.203125 -4 C 2.203125 -2.988281 2.265625 -2.191406 2.390625 -1.609375 C 2.515625 -1.035156 2.710938 -0.628906 2.984375 -0.390625 C 3.265625 -0.148438 3.625 -0.03125 4.0625 -0.03125 Z M 4.0625 -0.03125 "/></g></g></g><g fill="#ffffff" fill-opacity="1"><g transform="translate(185.364829, 212.707333)"><g><path d="M 4.109375 0.21875 C 3.492188 0.21875 2.945312 0.109375 2.46875 -0.109375 C 2 -0.328125 1.632812 -0.671875 1.375 -1.140625 C 1.113281 -1.617188 0.984375 -2.242188 0.984375 -3.015625 L 0.984375 -7.203125 C 0.984375 -7.503906 0.828125 -7.707031 0.515625 -7.8125 L 0.25 -7.875 L 0.25 -8 L 3.59375 -8 L 3.59375 -7.875 L 3.25 -7.78125 C 2.945312 -7.707031 2.796875 -7.503906 2.796875 -7.171875 L 2.796875 -2.703125 C 2.796875 -1.953125 2.953125 -1.394531 3.265625 -1.03125 C 3.585938 -0.675781 4.039062 -0.5 4.625 -0.5 C 5.238281 -0.5 5.722656 -0.6875 6.078125 -1.0625 C 6.441406 -1.445312 6.625 -1.984375 6.625 -2.671875 L 6.625 -7.125 C 6.625 -7.289062 6.597656 -7.4375 6.546875 -7.5625 C 6.492188 -7.6875 6.390625 -7.769531 6.234375 -7.8125 L 5.921875 -7.875 L 5.921875 -8 L 7.625 -8 L 7.625 -7.875 L 7.296875 -7.796875 C 7.140625 -7.765625 7.035156 -7.6875 6.984375 -7.5625 C 6.941406 -7.445312 6.921875 -7.304688 6.921875 -7.140625 L 6.921875 -2.703125 C 6.921875 -2.109375 6.800781 -1.59375 6.5625 -1.15625 C 6.332031 -0.71875 6.003906 -0.378906 5.578125 -0.140625 C 5.160156 0.0976562 4.671875 0.21875 4.109375 0.21875 Z M 4.109375 0.21875 "/></g></g></g><g fill="#ffffff" fill-opacity="1"><g transform="translate(193.667741, 212.707333)"><g><path d="M 2.875 0.21875 C 2.425781 0.21875 1.972656 0.160156 1.515625 0.046875 C 1.054688 -0.0546875 0.671875 -0.195312 0.359375 -0.375 L 0.421875 -2.03125 L 0.546875 -2.03125 L 0.921875 -1.234375 C 1.035156 -1.003906 1.15625 -0.800781 1.28125 -0.625 C 1.414062 -0.457031 1.59375 -0.328125 1.8125 -0.234375 C 1.976562 -0.148438 2.132812 -0.09375 2.28125 -0.0625 C 2.4375 -0.0390625 2.601562 -0.03125 2.78125 -0.03125 C 3.28125 -0.03125 3.671875 -0.160156 3.953125 -0.421875 C 4.242188 -0.691406 4.390625 -1.035156 4.390625 -1.453125 C 4.390625 -1.847656 4.289062 -2.15625 4.09375 -2.375 C 3.90625 -2.601562 3.597656 -2.820312 3.171875 -3.03125 L 2.671875 -3.25 C 1.972656 -3.550781 1.425781 -3.898438 1.03125 -4.296875 C 0.644531 -4.703125 0.453125 -5.238281 0.453125 -5.90625 C 0.453125 -6.382812 0.570312 -6.796875 0.8125 -7.140625 C 1.0625 -7.484375 1.40625 -7.75 1.84375 -7.9375 C 2.289062 -8.125 2.804688 -8.21875 3.390625 -8.21875 C 3.816406 -8.21875 4.222656 -8.160156 4.609375 -8.046875 C 4.992188 -7.929688 5.328125 -7.78125 5.609375 -7.59375 L 5.546875 -6.140625 L 5.421875 -6.140625 L 4.921875 -7.046875 C 4.785156 -7.328125 4.644531 -7.523438 4.5 -7.640625 C 4.363281 -7.765625 4.207031 -7.847656 4.03125 -7.890625 C 3.925781 -7.921875 3.828125 -7.941406 3.734375 -7.953125 C 3.648438 -7.972656 3.539062 -7.984375 3.40625 -7.984375 C 2.988281 -7.984375 2.640625 -7.863281 2.359375 -7.625 C 2.078125 -7.382812 1.9375 -7.0625 1.9375 -6.65625 C 1.9375 -6.238281 2.046875 -5.90625 2.265625 -5.65625 C 2.484375 -5.414062 2.800781 -5.195312 3.21875 -5 L 3.78125 -4.765625 C 4.5625 -4.421875 5.117188 -4.054688 5.453125 -3.671875 C 5.796875 -3.296875 5.96875 -2.800781 5.96875 -2.1875 C 5.96875 -1.476562 5.695312 -0.898438 5.15625 -0.453125 C 4.625 -0.00390625 3.863281 0.21875 2.875 0.21875 Z M 2.875 0.21875 "/></g></g></g><g fill="#ffffff" fill-opacity="1"><g transform="translate(200.419163, 212.707333)"><g><path d="M 0.265625 0 L 0.265625 -0.125 L 0.546875 -0.234375 C 0.679688 -0.285156 0.773438 -0.359375 0.828125 -0.453125 C 0.878906 -0.546875 0.90625 -0.675781 0.90625 -0.84375 L 0.90625 -7.171875 C 0.90625 -7.328125 0.882812 -7.453125 0.84375 -7.546875 C 0.800781 -7.640625 0.703125 -7.710938 0.546875 -7.765625 L 0.265625 -7.875 L 0.265625 -8 L 6.078125 -8 L 6.140625 -6.140625 L 6.03125 -6.140625 L 5.5 -7.28125 C 5.425781 -7.425781 5.347656 -7.539062 5.265625 -7.625 C 5.191406 -7.71875 5.070312 -7.765625 4.90625 -7.765625 L 2.734375 -7.765625 L 2.734375 -4.25 L 4.03125 -4.25 C 4.1875 -4.25 4.304688 -4.289062 4.390625 -4.375 C 4.472656 -4.46875 4.550781 -4.585938 4.625 -4.734375 L 4.859375 -5.21875 L 4.984375 -5.21875 L 4.984375 -3.03125 L 4.859375 -3.03125 L 4.625 -3.546875 C 4.550781 -3.691406 4.472656 -3.804688 4.390625 -3.890625 C 4.304688 -3.972656 4.1875 -4.015625 4.03125 -4.015625 L 2.734375 -4.015625 L 2.734375 -0.25 L 5.171875 -0.25 C 5.335938 -0.25 5.460938 -0.289062 5.546875 -0.375 C 5.640625 -0.457031 5.710938 -0.578125 5.765625 -0.734375 L 6.265625 -1.875 L 6.390625 -1.875 L 6.3125 0 Z M 0.265625 0 "/></g></g></g><g fill="#ffffff" fill-opacity="1"><g transform="translate(207.5827, 212.707333)"><g/></g></g><g fill="#ffffff" fill-opacity="1"><g transform="translate(210.661458, 212.707333)"><g><path d="M 0.265625 0 L 0.265625 -0.125 L 0.515625 -0.203125 C 0.679688 -0.265625 0.785156 -0.335938 0.828125 -0.421875 C 0.878906 -0.515625 0.90625 -0.648438 0.90625 -0.828125 L 0.90625 -7.171875 C 0.90625 -7.328125 0.882812 -7.453125 0.84375 -7.546875 C 0.800781 -7.640625 0.703125 -7.710938 0.546875 -7.765625 L 0.265625 -7.875 L 0.265625 -8 L 3.734375 -8 C 4.691406 -8 5.421875 -7.816406 5.921875 -7.453125 C 6.429688 -7.097656 6.6875 -6.601562 6.6875 -5.96875 C 6.6875 -5.613281 6.550781 -5.253906 6.28125 -4.890625 C 6.019531 -4.535156 5.601562 -4.265625 5.03125 -4.078125 L 6.71875 -0.734375 C 6.789062 -0.585938 6.875 -0.472656 6.96875 -0.390625 C 7.0625 -0.304688 7.179688 -0.234375 7.328125 -0.171875 L 7.5 -0.109375 L 7.5 0 L 5.328125 0 L 3.53125 -3.8125 L 2.703125 -3.8125 L 2.703125 -0.828125 C 2.703125 -0.671875 2.722656 -0.539062 2.765625 -0.4375 C 2.816406 -0.34375 2.921875 -0.273438 3.078125 -0.234375 L 3.375 -0.125 L 3.375 0 Z M 2.703125 -4.0625 L 3.28125 -4.0625 C 3.863281 -4.0625 4.285156 -4.21875 4.546875 -4.53125 C 4.804688 -4.84375 4.9375 -5.304688 4.9375 -5.921875 C 4.9375 -6.535156 4.8125 -6.992188 4.5625 -7.296875 C 4.320312 -7.609375 3.914062 -7.765625 3.34375 -7.765625 L 2.703125 -7.765625 Z M 2.703125 -4.0625 "/></g></g></g><g fill="#ffffff" fill-opacity="1"><g transform="translate(218.709828, 212.707333)"><g><path d="M 0.265625 0 L 0.265625 -0.125 L 0.546875 -0.234375 C 0.679688 -0.285156 0.773438 -0.359375 0.828125 -0.453125 C 0.878906 -0.546875 0.90625 -0.675781 0.90625 -0.84375 L 0.90625 -7.171875 C 0.90625 -7.328125 0.882812 -7.453125 0.84375 -7.546875 C 0.800781 -7.640625 0.703125 -7.710938 0.546875 -7.765625 L 0.265625 -7.875 L 0.265625 -8 L 6.078125 -8 L 6.140625 -6.140625 L 6.03125 -6.140625 L 5.5 -7.28125 C 5.425781 -7.425781 5.347656 -7.539062 5.265625 -7.625 C 5.191406 -7.71875 5.070312 -7.765625 4.90625 -7.765625 L 2.734375 -7.765625 L 2.734375 -4.25 L 4.03125 -4.25 C 4.1875 -4.25 4.304688 -4.289062 4.390625 -4.375 C 4.472656 -4.46875 4.550781 -4.585938 4.625 -4.734375 L 4.859375 -5.21875 L 4.984375 -5.21875 L 4.984375 -3.03125 L 4.859375 -3.03125 L 4.625 -3.546875 C 4.550781 -3.691406 4.472656 -3.804688 4.390625 -3.890625 C 4.304688 -3.972656 4.1875 -4.015625 4.03125 -4.015625 L 2.734375 -4.015625 L 2.734375 -0.25 L 5.171875 -0.25 C 5.335938 -0.25 5.460938 -0.289062 5.546875 -0.375 C 5.640625 -0.457031 5.710938 -0.578125 5.765625 -0.734375 L 6.265625 -1.875 L 6.390625 -1.875 L 6.3125 0 Z M 0.265625 0 "/></g></g></g><g fill="#ffffff" fill-opacity="1"><g transform="translate(225.873365, 212.707333)"><g><path d="M 3.4375 0.03125 L 0.84375 -7.1875 C 0.789062 -7.351562 0.71875 -7.484375 0.625 -7.578125 C 0.53125 -7.671875 0.40625 -7.738281 0.25 -7.78125 L -0.046875 -7.875 L -0.046875 -8 L 3.4375 -8 L 3.4375 -7.875 L 3.0625 -7.765625 C 2.875 -7.722656 2.769531 -7.640625 2.75 -7.515625 C 2.738281 -7.390625 2.757812 -7.238281 2.8125 -7.0625 L 4.609375 -1.75 L 6.421875 -7.078125 C 6.484375 -7.265625 6.507812 -7.414062 6.5 -7.53125 C 6.5 -7.65625 6.40625 -7.742188 6.21875 -7.796875 L 5.90625 -7.875 L 5.90625 -8 L 7.609375 -8 L 7.609375 -7.875 L 7.28125 -7.78125 C 7.125 -7.738281 7.007812 -7.664062 6.9375 -7.5625 C 6.875 -7.46875 6.816406 -7.335938 6.765625 -7.171875 L 4.34375 0.03125 Z M 3.4375 0.03125 "/></g></g></g><g fill="#ffffff" fill-opacity="1"><g transform="translate(233.970221, 212.707333)"><g><path d="M 0.265625 0 L 0.265625 -0.125 L 0.515625 -0.21875 C 0.671875 -0.269531 0.773438 -0.34375 0.828125 -0.4375 C 0.878906 -0.539062 0.90625 -0.675781 0.90625 -0.84375 L 0.90625 -7.171875 C 0.90625 -7.328125 0.878906 -7.453125 0.828125 -7.546875 C 0.785156 -7.648438 0.679688 -7.726562 0.515625 -7.78125 L 0.265625 -7.875 L 0.265625 -8 L 3.390625 -8 L 3.390625 -7.875 L 3.140625 -7.78125 C 2.972656 -7.726562 2.863281 -7.648438 2.8125 -7.546875 C 2.757812 -7.453125 2.734375 -7.328125 2.734375 -7.171875 L 2.734375 -0.84375 C 2.734375 -0.675781 2.757812 -0.546875 2.8125 -0.453125 C 2.863281 -0.359375 2.972656 -0.28125 3.140625 -0.21875 L 3.390625 -0.125 L 3.390625 0 Z M 0.265625 0 "/></g></g></g><g fill="#ffffff" fill-opacity="1"><g transform="translate(238.055024, 212.707333)"><g><path d="M 0.265625 0 L 0.265625 -0.125 L 0.546875 -0.234375 C 0.679688 -0.285156 0.773438 -0.359375 0.828125 -0.453125 C 0.878906 -0.546875 0.90625 -0.675781 0.90625 -0.84375 L 0.90625 -7.171875 C 0.90625 -7.328125 0.882812 -7.453125 0.84375 -7.546875 C 0.800781 -7.640625 0.703125 -7.710938 0.546875 -7.765625 L 0.265625 -7.875 L 0.265625 -8 L 6.078125 -8 L 6.140625 -6.140625 L 6.03125 -6.140625 L 5.5 -7.28125 C 5.425781 -7.425781 5.347656 -7.539062 5.265625 -7.625 C 5.191406 -7.71875 5.070312 -7.765625 4.90625 -7.765625 L 2.734375 -7.765625 L 2.734375 -4.25 L 4.03125 -4.25 C 4.1875 -4.25 4.304688 -4.289062 4.390625 -4.375 C 4.472656 -4.46875 4.550781 -4.585938 4.625 -4.734375 L 4.859375 -5.21875 L 4.984375 -5.21875 L 4.984375 -3.03125 L 4.859375 -3.03125 L 4.625 -3.546875 C 4.550781 -3.691406 4.472656 -3.804688 4.390625 -3.890625 C 4.304688 -3.972656 4.1875 -4.015625 4.03125 -4.015625 L 2.734375 -4.015625 L 2.734375 -0.25 L 5.171875 -0.25 C 5.335938 -0.25 5.460938 -0.289062 5.546875 -0.375 C 5.640625 -0.457031 5.710938 -0.578125 5.765625 -0.734375 L 6.265625 -1.875 L 6.390625 -1.875 L 6.3125 0 Z M 0.265625 0 "/></g></g></g><g fill="#ffffff" fill-opacity="1"><g transform="translate(245.218561, 212.707333)"><g><path d="M 2.859375 0.03125 L 0.71875 -7.171875 C 0.65625 -7.359375 0.59375 -7.492188 0.53125 -7.578125 C 0.46875 -7.671875 0.351562 -7.753906 0.1875 -7.828125 L 0.046875 -7.875 L 0.046875 -8 L 3.265625 -8 L 3.265625 -7.875 L 3 -7.78125 C 2.820312 -7.707031 2.695312 -7.617188 2.625 -7.515625 C 2.5625 -7.410156 2.5625 -7.265625 2.625 -7.078125 L 3.9375 -2.03125 L 5.375 -6.265625 L 5.09375 -7.125 C 5.03125 -7.300781 4.972656 -7.429688 4.921875 -7.515625 C 4.878906 -7.609375 4.800781 -7.679688 4.6875 -7.734375 L 4.421875 -7.875 L 4.421875 -8 L 7.46875 -8 L 7.46875 -7.875 L 7.09375 -7.734375 C 6.925781 -7.679688 6.832031 -7.597656 6.8125 -7.484375 C 6.800781 -7.378906 6.820312 -7.238281 6.875 -7.0625 L 8.421875 -1.921875 L 9.875 -6.96875 C 9.925781 -7.164062 9.941406 -7.335938 9.921875 -7.484375 C 9.910156 -7.628906 9.8125 -7.734375 9.625 -7.796875 L 9.375 -7.875 L 9.375 -8 L 11.0625 -8 L 11.0625 -7.875 L 10.75 -7.765625 C 10.582031 -7.703125 10.46875 -7.609375 10.40625 -7.484375 C 10.34375 -7.367188 10.285156 -7.222656 10.234375 -7.046875 L 8.21875 0.03125 L 7.390625 0.03125 L 5.5625 -5.65625 L 3.703125 0.03125 Z M 2.859375 0.03125 "/></g></g></g><path fill="#ffffff" d="M 134.46875 211.535156 C 134.730469 211.535156 134.941406 211.320312 134.941406 211.058594 C 134.941406 210.792969 134.730469 210.582031 134.46875 210.582031 C 134.203125 210.582031 133.992188 210.792969 133.992188 211.058594 C 133.992188 211.320312 134.203125 211.535156 134.46875 211.535156 Z M 134.46875 211.535156 " fill-opacity="1" fill-rule="nonzero"/><path fill="#ffffff" d="M 127.378906 198.726562 L 132.765625 198.726562 C 132.941406 198.726562 133.082031 198.585938 133.082031 198.414062 L 133.082031 193.03125 C 133.082031 192.855469 132.941406 192.714844 132.765625 192.714844 L 127.378906 192.714844 C 127.207031 192.714844 127.066406 192.855469 127.066406 193.03125 L 127.066406 198.414062 C 127.066406 198.585938 127.207031 198.726562 127.378906 198.726562 Z M 127.691406 193.34375 L 132.453125 193.34375 L 132.453125 198.101562 L 127.691406 198.101562 Z M 127.691406 193.34375 " fill-opacity="1" fill-rule="nonzero"/><path fill="#ffffff" d="M 131.683594 193.800781 L 128.464844 193.800781 C 128.292969 193.800781 128.152344 193.941406 128.152344 194.113281 L 128.152344 197.328125 C 128.152344 197.5 128.292969 197.640625 128.464844 197.640625 L 131.683594 197.640625 C 131.855469 197.640625 131.996094 197.5 131.996094 197.328125 L 131.996094 194.113281 C 131.996094 193.941406 131.855469 193.800781 131.683594 193.800781 Z M 131.683594 193.800781 " fill-opacity="1" fill-rule="nonzero"/><g clip-path="url(#0be195f709)"><path fill="#ffffff" d="M 154.558594 214.941406 L 154.402344 214.941406 L 154.402344 200.890625 C 154.878906 200.800781 155.285156 200.507812 155.519531 200.0625 C 155.804688 199.527344 155.769531 198.902344 155.429688 198.398438 L 150.292969 190.835938 C 150.234375 190.75 150.136719 190.699219 150.03125 190.699219 L 135.191406 190.699219 L 131.550781 186.222656 C 131.1875 185.773438 130.648438 185.519531 130.074219 185.519531 C 129.496094 185.519531 128.957031 185.773438 128.59375 186.222656 L 117.058594 200.414062 C 116.765625 200.773438 116.707031 201.257812 116.910156 201.675781 C 117.109375 202.097656 117.519531 202.359375 117.984375 202.359375 C 118.113281 202.359375 118.234375 202.332031 118.355469 202.292969 L 118.355469 214.941406 L 117.320312 214.941406 C 116.6875 214.941406 116.171875 215.457031 116.171875 216.113281 C 116.171875 216.746094 116.6875 217.265625 117.320312 217.265625 L 154.558594 217.265625 C 155.191406 217.265625 155.710938 216.746094 155.710938 216.09375 C 155.710938 215.457031 155.191406 214.941406 154.558594 214.941406 Z M 139.753906 214.941406 L 133.339844 214.941406 L 133.339844 205.746094 L 139.753906 205.746094 Z M 141.792969 214.941406 L 141.792969 202.292969 C 141.910156 202.332031 142.035156 202.359375 142.164062 202.359375 C 142.820312 202.359375 143.355469 201.820312 143.355469 201.160156 C 143.355469 201.078125 143.34375 201 143.328125 200.925781 L 153.777344 200.925781 L 153.777344 214.941406 Z M 117.476562 201.40625 C 117.378906 201.207031 117.40625 200.980469 117.546875 200.808594 L 129.082031 186.617188 C 129.324219 186.320312 129.6875 186.144531 130.074219 186.144531 C 130.460938 186.144531 130.820312 186.320312 131.066406 186.617188 L 142.601562 200.808594 C 142.601562 200.8125 142.628906 200.851562 142.632812 200.855469 C 142.695312 200.945312 142.726562 201.050781 142.726562 201.160156 C 142.726562 201.433594 142.511719 201.730469 142.164062 201.730469 C 141.992188 201.730469 141.828125 201.65625 141.722656 201.519531 L 130.316406 187.488281 C 130.257812 187.414062 130.167969 187.371094 130.070312 187.371094 C 129.976562 187.371094 129.886719 187.414062 129.828125 187.488281 L 118.425781 201.519531 C 118.316406 201.652344 118.15625 201.730469 117.984375 201.730469 C 117.761719 201.730469 117.570312 201.609375 117.476562 201.40625 Z M 118.980469 201.828125 L 130.070312 188.183594 L 141.164062 201.828125 L 141.164062 214.941406 L 140.382812 214.941406 L 140.382812 205.429688 C 140.382812 205.257812 140.242188 205.117188 140.070312 205.117188 L 133.023438 205.117188 C 132.851562 205.117188 132.710938 205.257812 132.710938 205.429688 L 132.710938 214.941406 L 118.980469 214.941406 Z M 118.980469 201.828125 " fill-opacity="1" fill-rule="nonzero"/></g><path fill="#ffffff" d="M 152.828125 204.722656 L 142.773438 204.722656 C 142.601562 204.722656 142.460938 204.863281 142.460938 205.035156 L 142.460938 211.601562 C 142.460938 211.773438 142.601562 211.914062 142.773438 211.914062 L 152.828125 211.914062 C 153 211.914062 153.140625 211.773438 153.140625 211.601562 L 153.140625 205.035156 C 153.140625 204.863281 153 204.722656 152.828125 204.722656 Z M 152.515625 210.027344 L 148.117188 210.027344 L 148.117188 205.347656 L 152.515625 205.347656 Z M 147.488281 205.347656 L 147.488281 210.027344 L 143.089844 210.027344 L 143.089844 205.347656 Z M 147.488281 205.347656 " fill-opacity="1" fill-rule="nonzero"/><path fill="#ffffff" d="M 130.917969 204.722656 L 120.863281 204.722656 C 120.6875 204.722656 120.546875 204.863281 120.546875 205.035156 L 120.546875 211.601562 C 120.546875 211.773438 120.6875 211.914062 120.863281 211.914062 L 130.917969 211.914062 C 131.089844 211.914062 131.230469 211.773438 131.230469 211.601562 L 131.230469 205.035156 C 131.230469 204.863281 131.089844 204.722656 130.917969 204.722656 Z M 130.601562 210.027344 L 126.203125 210.027344 L 126.203125 205.347656 L 130.601562 205.347656 Z M 125.574219 205.347656 L 125.574219 210.027344 L 121.175781 210.027344 L 121.175781 205.347656 Z M 125.574219 205.347656 " fill-opacity="1" fill-rule="nonzero"/><g fill="#ffffff" fill-opacity="1"><g transform="translate(113.265925, 227.499148)"><g><path d="M 2.75 -4.03125 L 4.4375 0 L 3.5 0 L 3.140625 -0.859375 L 1.421875 -0.859375 L 1.0625 0 L 0.125 0 L 1.8125 -4.03125 Z M 2.8125 -1.65625 L 2.28125 -2.921875 L 1.75 -1.65625 Z M 2.8125 -1.65625 "/></g></g></g><g fill="#ffffff" fill-opacity="1"><g transform="translate(119.004791, 227.499148)"><g><path d="M 2.578125 -4.03125 L 2.578125 -1.4375 C 2.578125 -1.269531 2.566406 -1.109375 2.546875 -0.953125 C 2.523438 -0.804688 2.460938 -0.660156 2.359375 -0.515625 C 2.234375 -0.328125 2.078125 -0.1875 1.890625 -0.09375 C 1.703125 0 1.5 0.046875 1.28125 0.046875 C 1.132812 0.046875 0.992188 0.0195312 0.859375 -0.03125 C 0.734375 -0.0820312 0.613281 -0.148438 0.5 -0.234375 C 0.394531 -0.316406 0.300781 -0.414062 0.21875 -0.53125 C 0.144531 -0.644531 0.0859375 -0.769531 0.046875 -0.90625 L 0.78125 -1.15625 C 0.8125 -1.050781 0.867188 -0.960938 0.953125 -0.890625 C 1.046875 -0.816406 1.144531 -0.78125 1.25 -0.78125 C 1.382812 -0.78125 1.488281 -0.820312 1.5625 -0.90625 C 1.632812 -1 1.679688 -1.101562 1.703125 -1.21875 C 1.703125 -1.226562 1.703125 -1.28125 1.703125 -1.375 C 1.710938 -1.46875 1.71875 -1.582031 1.71875 -1.71875 C 1.71875 -1.851562 1.71875 -2.003906 1.71875 -2.171875 C 1.71875 -2.335938 1.71875 -2.503906 1.71875 -2.671875 C 1.71875 -3.078125 1.710938 -3.53125 1.703125 -4.03125 Z M 2.578125 -4.03125 "/></g></g></g><g fill="#ffffff" fill-opacity="1"><g transform="translate(123.018582, 227.499148)"><g><path d="M 2.546875 -4.03125 L 3.40625 -4.03125 L 3.40625 -1.453125 C 3.40625 -1.253906 3.363281 -1.0625 3.28125 -0.875 C 3.195312 -0.6875 3.082031 -0.519531 2.9375 -0.375 C 2.789062 -0.238281 2.625 -0.128906 2.4375 -0.046875 C 2.25 0.0351562 2.039062 0.078125 1.8125 0.078125 C 1.601562 0.078125 1.398438 0.0351562 1.203125 -0.046875 C 1.015625 -0.128906 0.847656 -0.238281 0.703125 -0.375 C 0.554688 -0.519531 0.441406 -0.6875 0.359375 -0.875 C 0.273438 -1.0625 0.234375 -1.253906 0.234375 -1.453125 L 0.234375 -4.03125 L 1.09375 -4.03125 L 1.09375 -1.625 C 1.09375 -1.507812 1.113281 -1.398438 1.15625 -1.296875 C 1.195312 -1.203125 1.25 -1.113281 1.3125 -1.03125 C 1.375 -0.957031 1.445312 -0.894531 1.53125 -0.84375 C 1.625 -0.800781 1.71875 -0.78125 1.8125 -0.78125 C 1.914062 -0.78125 2.007812 -0.800781 2.09375 -0.84375 C 2.1875 -0.894531 2.265625 -0.957031 2.328125 -1.03125 C 2.398438 -1.113281 2.453125 -1.203125 2.484375 -1.296875 C 2.523438 -1.398438 2.546875 -1.507812 2.546875 -1.625 Z M 2.546875 -4.03125 "/></g></g></g><g fill="#ffffff" fill-opacity="1"><g transform="translate(127.840824, 227.499148)"><g><path d="M 1.90625 -4.03125 C 2.195312 -4.03125 2.453125 -3.976562 2.671875 -3.875 C 2.898438 -3.769531 3.085938 -3.625 3.234375 -3.4375 C 3.378906 -3.257812 3.488281 -3.046875 3.5625 -2.796875 C 3.644531 -2.546875 3.6875 -2.285156 3.6875 -2.015625 C 3.6875 -1.734375 3.644531 -1.46875 3.5625 -1.21875 C 3.488281 -0.976562 3.378906 -0.765625 3.234375 -0.578125 C 3.085938 -0.398438 2.914062 -0.257812 2.71875 -0.15625 C 2.519531 -0.0507812 2.304688 0 2.078125 0 L 0.265625 0 L 0.265625 -4.03125 Z M 1.90625 -0.78125 C 2.070312 -0.78125 2.210938 -0.8125 2.328125 -0.875 C 2.441406 -0.945312 2.535156 -1.035156 2.609375 -1.140625 C 2.679688 -1.253906 2.734375 -1.382812 2.765625 -1.53125 C 2.804688 -1.6875 2.828125 -1.84375 2.828125 -2 C 2.828125 -2.164062 2.8125 -2.320312 2.78125 -2.46875 C 2.75 -2.625 2.691406 -2.757812 2.609375 -2.875 C 2.535156 -2.988281 2.441406 -3.078125 2.328125 -3.140625 C 2.210938 -3.210938 2.070312 -3.25 1.90625 -3.25 L 1.140625 -3.25 L 1.140625 -0.78125 Z M 1.90625 -0.78125 "/></g></g></g><g fill="#ffffff" fill-opacity="1"><g transform="translate(132.907882, 227.499148)"><g><path d="M 2.75 -4.03125 L 4.4375 0 L 3.5 0 L 3.140625 -0.859375 L 1.421875 -0.859375 L 1.0625 0 L 0.125 0 L 1.8125 -4.03125 Z M 2.8125 -1.65625 L 2.28125 -2.921875 L 1.75 -1.65625 Z M 2.8125 -1.65625 "/></g></g></g><g fill="#ffffff" fill-opacity="1"><g transform="translate(138.646748, 227.499148)"><g><path d="M 3.03125 -4.03125 L 3.890625 -4.03125 L 3.890625 0 L 3.0625 0 L 1.125 -2.640625 L 1.125 0 L 0.265625 0 L 0.265625 -4.03125 L 1.078125 -4.03125 L 3.03125 -1.375 Z M 3.03125 -4.03125 "/></g></g></g><g fill="#ffffff" fill-opacity="1"><g transform="translate(143.981387, 227.499148)"><g><path d="M 1.90625 -4.03125 C 2.195312 -4.03125 2.453125 -3.976562 2.671875 -3.875 C 2.898438 -3.769531 3.085938 -3.625 3.234375 -3.4375 C 3.378906 -3.257812 3.488281 -3.046875 3.5625 -2.796875 C 3.644531 -2.546875 3.6875 -2.285156 3.6875 -2.015625 C 3.6875 -1.734375 3.644531 -1.46875 3.5625 -1.21875 C 3.488281 -0.976562 3.378906 -0.765625 3.234375 -0.578125 C 3.085938 -0.398438 2.914062 -0.257812 2.71875 -0.15625 C 2.519531 -0.0507812 2.304688 0 2.078125 0 L 0.265625 0 L 0.265625 -4.03125 Z M 1.90625 -0.78125 C 2.070312 -0.78125 2.210938 -0.8125 2.328125 -0.875 C 2.441406 -0.945312 2.535156 -1.035156 2.609375 -1.140625 C 2.679688 -1.253906 2.734375 -1.382812 2.765625 -1.53125 C 2.804688 -1.6875 2.828125 -1.84375 2.828125 -2 C 2.828125 -2.164062 2.8125 -2.320312 2.78125 -2.46875 C 2.75 -2.625 2.691406 -2.757812 2.609375 -2.875 C 2.535156 -2.988281 2.441406 -3.078125 2.328125 -3.140625 C 2.210938 -3.210938 2.070312 -3.25 1.90625 -3.25 L 1.140625 -3.25 L 1.140625 -0.78125 Z M 1.90625 -0.78125 "/></g></g></g><g fill="#ffffff" fill-opacity="1"><g transform="translate(149.048445, 227.499148)"><g><path d="M 2.171875 -4.09375 C 2.441406 -4.09375 2.695312 -4.035156 2.9375 -3.921875 C 3.1875 -3.816406 3.398438 -3.664062 3.578125 -3.46875 C 3.753906 -3.28125 3.894531 -3.0625 4 -2.8125 C 4.101562 -2.5625 4.15625 -2.296875 4.15625 -2.015625 C 4.15625 -1.734375 4.101562 -1.460938 4 -1.203125 C 3.894531 -0.953125 3.753906 -0.734375 3.578125 -0.546875 C 3.398438 -0.359375 3.1875 -0.207031 2.9375 -0.09375 C 2.695312 0.0195312 2.441406 0.078125 2.171875 0.078125 C 1.898438 0.078125 1.640625 0.0195312 1.390625 -0.09375 C 1.148438 -0.207031 0.941406 -0.359375 0.765625 -0.546875 C 0.585938 -0.734375 0.445312 -0.953125 0.34375 -1.203125 C 0.238281 -1.460938 0.1875 -1.734375 0.1875 -2.015625 C 0.1875 -2.296875 0.238281 -2.5625 0.34375 -2.8125 C 0.445312 -3.0625 0.585938 -3.28125 0.765625 -3.46875 C 0.941406 -3.664062 1.148438 -3.816406 1.390625 -3.921875 C 1.640625 -4.035156 1.898438 -4.09375 2.171875 -4.09375 Z M 2.171875 -0.78125 C 2.328125 -0.78125 2.472656 -0.8125 2.609375 -0.875 C 2.742188 -0.945312 2.863281 -1.035156 2.96875 -1.140625 C 3.070312 -1.253906 3.148438 -1.382812 3.203125 -1.53125 C 3.265625 -1.675781 3.296875 -1.835938 3.296875 -2.015625 C 3.296875 -2.179688 3.265625 -2.335938 3.203125 -2.484375 C 3.148438 -2.640625 3.070312 -2.769531 2.96875 -2.875 C 2.863281 -2.988281 2.742188 -3.078125 2.609375 -3.140625 C 2.472656 -3.210938 2.328125 -3.25 2.171875 -3.25 C 2.015625 -3.25 1.867188 -3.210938 1.734375 -3.140625 C 1.597656 -3.078125 1.476562 -2.988281 1.375 -2.875 C 1.269531 -2.769531 1.1875 -2.640625 1.125 -2.484375 C 1.070312 -2.335938 1.046875 -2.179688 1.046875 -2.015625 C 1.046875 -1.835938 1.070312 -1.675781 1.125 -1.53125 C 1.1875 -1.382812 1.269531 -1.253906 1.375 -1.140625 C 1.476562 -1.035156 1.597656 -0.945312 1.734375 -0.875 C 1.867188 -0.8125 2.015625 -0.78125 2.171875 -0.78125 Z M 2.171875 -0.78125 "/></g></g></g><g fill="#ffffff" fill-opacity="1"><g transform="translate(154.582357, 227.499148)"><g/></g></g><g fill="#ffffff" fill-opacity="1"><g transform="translate(157.326532, 227.499148)"><g><path d="M 2.75 -4.03125 L 4.4375 0 L 3.5 0 L 3.140625 -0.859375 L 1.421875 -0.859375 L 1.0625 0 L 0.125 0 L 1.8125 -4.03125 Z M 2.8125 -1.65625 L 2.28125 -2.921875 L 1.75 -1.65625 Z M 2.8125 -1.65625 "/></g></g></g><g fill="#ffffff" fill-opacity="1"><g transform="translate(163.065399, 227.499148)"><g/></g></g><g fill="#ffffff" fill-opacity="1"><g transform="translate(165.809574, 227.499148)"><g><path d="M 0.265625 -4.03125 L 2.78125 -4.03125 L 2.78125 -3.25 L 1.125 -3.25 L 1.125 -2.515625 L 2.59375 -2.515625 L 2.59375 -1.734375 L 1.125 -1.734375 L 1.125 0 L 0.265625 0 Z M 0.265625 -4.03125 "/></g></g></g><g fill="#ffffff" fill-opacity="1"><g transform="translate(169.85183, 227.499148)"><g><path d="M 2.75 -4.03125 L 4.4375 0 L 3.5 0 L 3.140625 -0.859375 L 1.421875 -0.859375 L 1.0625 0 L 0.125 0 L 1.8125 -4.03125 Z M 2.8125 -1.65625 L 2.28125 -2.921875 L 1.75 -1.65625 Z M 2.8125 -1.65625 "/></g></g></g><g fill="#ffffff" fill-opacity="1"><g transform="translate(175.590697, 227.499148)"><g><path d="M 1.4375 -0.78125 L 3.34375 -0.78125 L 3.34375 0 L 0.234375 0 L 0.234375 -0.578125 L 2.125 -3.25 L 0.4375 -3.25 L 0.4375 -4.03125 L 3.21875 -4.03125 L 3.21875 -3.3125 Z M 1.4375 -0.78125 "/></g></g></g><g fill="#ffffff" fill-opacity="1"><g transform="translate(180.367393, 227.499148)"><g><path d="M 0.265625 -4.03125 L 2.796875 -4.03125 L 2.796875 -3.25 L 1.140625 -3.25 L 1.140625 -2.515625 L 2.59375 -2.515625 L 2.59375 -1.734375 L 1.140625 -1.734375 L 1.140625 -0.78125 L 2.796875 -0.78125 L 2.796875 0 L 0.265625 0 Z M 0.265625 -4.03125 "/></g></g></g><g fill="#ffffff" fill-opacity="1"><g transform="translate(184.614608, 227.499148)"><g><path d="M 3.171875 -2.828125 C 3.171875 -2.703125 3.148438 -2.582031 3.109375 -2.46875 C 3.078125 -2.351562 3.023438 -2.242188 2.953125 -2.140625 C 2.890625 -2.046875 2.8125 -1.960938 2.71875 -1.890625 C 2.632812 -1.816406 2.539062 -1.757812 2.4375 -1.71875 L 3.765625 0 L 2.765625 0 L 1.515625 -1.625 L 1.125 -1.625 L 1.125 0 L 0.265625 0 L 0.265625 -4.03125 L 2 -4.03125 C 2.164062 -4.03125 2.316406 -4 2.453125 -3.9375 C 2.597656 -3.875 2.722656 -3.785156 2.828125 -3.671875 C 2.929688 -3.566406 3.015625 -3.441406 3.078125 -3.296875 C 3.140625 -3.148438 3.171875 -2.992188 3.171875 -2.828125 Z M 1.90625 -2.40625 C 2.007812 -2.40625 2.097656 -2.445312 2.171875 -2.53125 C 2.253906 -2.613281 2.296875 -2.710938 2.296875 -2.828125 C 2.296875 -2.941406 2.253906 -3.039062 2.171875 -3.125 C 2.097656 -3.207031 2.007812 -3.25 1.90625 -3.25 L 1.125 -3.25 L 1.125 -2.40625 Z M 1.90625 -2.40625 "/></g></g></g><g fill="#ffffff" fill-opacity="1"><g transform="translate(189.704438, 227.499148)"><g/></g></g><g fill="#ffffff" fill-opacity="1"><g transform="translate(192.448609, 227.499148)"><g><path d="M 2.75 -4.03125 L 4.4375 0 L 3.5 0 L 3.140625 -0.859375 L 1.421875 -0.859375 L 1.0625 0 L 0.125 0 L 1.8125 -4.03125 Z M 2.8125 -1.65625 L 2.28125 -2.921875 L 1.75 -1.65625 Z M 2.8125 -1.65625 "/></g></g></g><g fill="#ffffff" fill-opacity="1"><g transform="translate(198.187472, 227.499148)"><g/></g></g><g fill="#ffffff" fill-opacity="1"><g transform="translate(200.931644, 227.499148)"><g><path d="M 0.265625 -4.03125 L 2.796875 -4.03125 L 2.796875 -3.25 L 1.140625 -3.25 L 1.140625 -2.515625 L 2.59375 -2.515625 L 2.59375 -1.734375 L 1.140625 -1.734375 L 1.140625 -0.78125 L 2.796875 -0.78125 L 2.796875 0 L 0.265625 0 Z M 0.265625 -4.03125 "/></g></g></g><g fill="#ffffff" fill-opacity="1"><g transform="translate(205.178858, 227.499148)"><g><path d="M 2.828125 -2.078125 C 2.992188 -1.984375 3.117188 -1.859375 3.203125 -1.703125 C 3.285156 -1.554688 3.328125 -1.390625 3.328125 -1.203125 C 3.328125 -1.015625 3.28125 -0.84375 3.1875 -0.6875 C 3.101562 -0.53125 2.984375 -0.390625 2.828125 -0.265625 C 2.679688 -0.160156 2.515625 -0.078125 2.328125 -0.015625 C 2.140625 0.0351562 1.945312 0.0664062 1.75 0.078125 C 1.539062 0.078125 1.34375 0.0507812 1.15625 0 C 0.96875 -0.0625 0.804688 -0.148438 0.671875 -0.265625 C 0.453125 -0.429688 0.300781 -0.628906 0.21875 -0.859375 L 1.015625 -1.234375 C 1.015625 -1.191406 1.023438 -1.140625 1.046875 -1.078125 C 1.078125 -1.023438 1.117188 -0.972656 1.171875 -0.921875 C 1.234375 -0.867188 1.3125 -0.820312 1.40625 -0.78125 C 1.5 -0.75 1.609375 -0.734375 1.734375 -0.734375 C 1.847656 -0.734375 1.941406 -0.742188 2.015625 -0.765625 C 2.097656 -0.796875 2.164062 -0.828125 2.21875 -0.859375 C 2.28125 -0.898438 2.320312 -0.945312 2.34375 -1 C 2.375 -1.050781 2.390625 -1.101562 2.390625 -1.15625 C 2.390625 -1.21875 2.367188 -1.273438 2.328125 -1.328125 C 2.296875 -1.378906 2.238281 -1.421875 2.15625 -1.453125 C 2 -1.503906 1.835938 -1.546875 1.671875 -1.578125 C 1.503906 -1.617188 1.335938 -1.664062 1.171875 -1.71875 C 1.015625 -1.78125 0.867188 -1.851562 0.734375 -1.9375 C 0.597656 -2.03125 0.488281 -2.160156 0.40625 -2.328125 C 0.332031 -2.472656 0.296875 -2.625 0.296875 -2.78125 C 0.296875 -2.96875 0.335938 -3.144531 0.421875 -3.3125 C 0.515625 -3.488281 0.632812 -3.632812 0.78125 -3.75 C 0.914062 -3.851562 1.070312 -3.9375 1.25 -4 C 1.425781 -4.0625 1.609375 -4.09375 1.796875 -4.09375 C 1.992188 -4.09375 2.179688 -4.0625 2.359375 -4 C 2.535156 -3.945312 2.691406 -3.863281 2.828125 -3.75 C 2.960938 -3.644531 3.070312 -3.523438 3.15625 -3.390625 L 2.515625 -2.953125 C 2.429688 -3.054688 2.328125 -3.140625 2.203125 -3.203125 C 2.085938 -3.273438 1.957031 -3.3125 1.8125 -3.3125 C 1.601562 -3.3125 1.441406 -3.265625 1.328125 -3.171875 C 1.222656 -3.085938 1.171875 -2.972656 1.171875 -2.828125 C 1.171875 -2.753906 1.203125 -2.691406 1.265625 -2.640625 C 1.328125 -2.585938 1.40625 -2.539062 1.5 -2.5 C 1.601562 -2.457031 1.71875 -2.421875 1.84375 -2.390625 C 1.96875 -2.359375 2.09375 -2.320312 2.21875 -2.28125 C 2.34375 -2.25 2.457031 -2.21875 2.5625 -2.1875 C 2.675781 -2.15625 2.765625 -2.117188 2.828125 -2.078125 Z M 2.828125 -2.078125 "/></g></g></g><g fill="#ffffff" fill-opacity="1"><g transform="translate(209.864462, 227.499148)"><g><path d="M 2.171875 -0.78125 C 2.347656 -0.78125 2.523438 -0.820312 2.703125 -0.90625 C 2.878906 -0.988281 3.054688 -1.128906 3.234375 -1.328125 L 3.78125 -0.796875 C 3.5625 -0.515625 3.304688 -0.296875 3.015625 -0.140625 C 2.734375 0.00390625 2.441406 0.078125 2.140625 0.078125 C 1.867188 0.078125 1.613281 0.0195312 1.375 -0.09375 C 1.132812 -0.207031 0.925781 -0.359375 0.75 -0.546875 C 0.570312 -0.734375 0.429688 -0.953125 0.328125 -1.203125 C 0.234375 -1.460938 0.1875 -1.734375 0.1875 -2.015625 C 0.1875 -2.296875 0.238281 -2.5625 0.34375 -2.8125 C 0.445312 -3.0625 0.585938 -3.28125 0.765625 -3.46875 C 0.941406 -3.664062 1.148438 -3.816406 1.390625 -3.921875 C 1.628906 -4.035156 1.890625 -4.09375 2.171875 -4.09375 C 2.421875 -4.09375 2.660156 -4.046875 2.890625 -3.953125 C 3.117188 -3.859375 3.34375 -3.695312 3.5625 -3.46875 L 3.0625 -2.859375 C 2.90625 -3.015625 2.753906 -3.113281 2.609375 -3.15625 C 2.472656 -3.207031 2.328125 -3.234375 2.171875 -3.234375 C 2.015625 -3.234375 1.863281 -3.203125 1.71875 -3.140625 C 1.582031 -3.078125 1.460938 -2.988281 1.359375 -2.875 C 1.265625 -2.769531 1.1875 -2.640625 1.125 -2.484375 C 1.0625 -2.335938 1.03125 -2.179688 1.03125 -2.015625 C 1.03125 -1.835938 1.0625 -1.675781 1.125 -1.53125 C 1.1875 -1.382812 1.265625 -1.253906 1.359375 -1.140625 C 1.460938 -1.035156 1.582031 -0.945312 1.71875 -0.875 C 1.863281 -0.8125 2.015625 -0.78125 2.171875 -0.78125 Z M 2.171875 -0.78125 "/></g></g></g><g fill="#ffffff" fill-opacity="1"><g transform="translate(214.999834, 227.499148)"><g><path d="M 2.171875 -4.09375 C 2.441406 -4.09375 2.695312 -4.035156 2.9375 -3.921875 C 3.1875 -3.816406 3.398438 -3.664062 3.578125 -3.46875 C 3.753906 -3.28125 3.894531 -3.0625 4 -2.8125 C 4.101562 -2.5625 4.15625 -2.296875 4.15625 -2.015625 C 4.15625 -1.734375 4.101562 -1.460938 4 -1.203125 C 3.894531 -0.953125 3.753906 -0.734375 3.578125 -0.546875 C 3.398438 -0.359375 3.1875 -0.207031 2.9375 -0.09375 C 2.695312 0.0195312 2.441406 0.078125 2.171875 0.078125 C 1.898438 0.078125 1.640625 0.0195312 1.390625 -0.09375 C 1.148438 -0.207031 0.941406 -0.359375 0.765625 -0.546875 C 0.585938 -0.734375 0.445312 -0.953125 0.34375 -1.203125 C 0.238281 -1.460938 0.1875 -1.734375 0.1875 -2.015625 C 0.1875 -2.296875 0.238281 -2.5625 0.34375 -2.8125 C 0.445312 -3.0625 0.585938 -3.28125 0.765625 -3.46875 C 0.941406 -3.664062 1.148438 -3.816406 1.390625 -3.921875 C 1.640625 -4.035156 1.898438 -4.09375 2.171875 -4.09375 Z M 2.171875 -0.78125 C 2.328125 -0.78125 2.472656 -0.8125 2.609375 -0.875 C 2.742188 -0.945312 2.863281 -1.035156 2.96875 -1.140625 C 3.070312 -1.253906 3.148438 -1.382812 3.203125 -1.53125 C 3.265625 -1.675781 3.296875 -1.835938 3.296875 -2.015625 C 3.296875 -2.179688 3.265625 -2.335938 3.203125 -2.484375 C 3.148438 -2.640625 3.070312 -2.769531 2.96875 -2.875 C 2.863281 -2.988281 2.742188 -3.078125 2.609375 -3.140625 C 2.472656 -3.210938 2.328125 -3.25 2.171875 -3.25 C 2.015625 -3.25 1.867188 -3.210938 1.734375 -3.140625 C 1.597656 -3.078125 1.476562 -2.988281 1.375 -2.875 C 1.269531 -2.769531 1.1875 -2.640625 1.125 -2.484375 C 1.070312 -2.335938 1.046875 -2.179688 1.046875 -2.015625 C 1.046875 -1.835938 1.070312 -1.675781 1.125 -1.53125 C 1.1875 -1.382812 1.269531 -1.253906 1.375 -1.140625 C 1.476562 -1.035156 1.597656 -0.945312 1.734375 -0.875 C 1.867188 -0.8125 2.015625 -0.78125 2.171875 -0.78125 Z M 2.171875 -0.78125 "/></g></g></g><g fill="#ffffff" fill-opacity="1"><g transform="translate(220.533743, 227.499148)"><g><path d="M 1.125 -0.78125 L 2.78125 -0.78125 L 2.78125 0 L 0.265625 0 L 0.265625 -4.03125 L 1.125 -4.03125 Z M 1.125 -0.78125 "/></g></g></g><g fill="#ffffff" fill-opacity="1"><g transform="translate(224.558918, 227.499148)"><g><path d="M 2.96875 -4.03125 L 3.84375 -4.03125 L 3.84375 0 L 2.96875 0 L 2.96875 -1.734375 L 1.125 -1.734375 L 1.125 0 L 0.265625 0 L 0.265625 -4.03125 L 1.125 -4.03125 L 1.125 -2.515625 L 2.96875 -2.515625 Z M 2.96875 -4.03125 "/></g></g></g><g fill="#ffffff" fill-opacity="1"><g transform="translate(229.848011, 227.499148)"><g><path d="M 2.75 -4.03125 L 4.4375 0 L 3.5 0 L 3.140625 -0.859375 L 1.421875 -0.859375 L 1.0625 0 L 0.125 0 L 1.8125 -4.03125 Z M 2.8125 -1.65625 L 2.28125 -2.921875 L 1.75 -1.65625 Z M 2.8125 -1.65625 "/></g></g></g><g fill="#ffffff" fill-opacity="1"><g transform="translate(235.586874, 227.499148)"><g/></g></g><g fill="#ffffff" fill-opacity="1"><g transform="translate(238.331053, 227.499148)"><g><path d="M 2.171875 -0.78125 C 2.347656 -0.78125 2.523438 -0.820312 2.703125 -0.90625 C 2.878906 -0.988281 3.054688 -1.128906 3.234375 -1.328125 L 3.78125 -0.796875 C 3.5625 -0.515625 3.304688 -0.296875 3.015625 -0.140625 C 2.734375 0.00390625 2.441406 0.078125 2.140625 0.078125 C 1.867188 0.078125 1.613281 0.0195312 1.375 -0.09375 C 1.132812 -0.207031 0.925781 -0.359375 0.75 -0.546875 C 0.570312 -0.734375 0.429688 -0.953125 0.328125 -1.203125 C 0.234375 -1.460938 0.1875 -1.734375 0.1875 -2.015625 C 0.1875 -2.296875 0.238281 -2.5625 0.34375 -2.8125 C 0.445312 -3.0625 0.585938 -3.28125 0.765625 -3.46875 C 0.941406 -3.664062 1.148438 -3.816406 1.390625 -3.921875 C 1.628906 -4.035156 1.890625 -4.09375 2.171875 -4.09375 C 2.421875 -4.09375 2.660156 -4.046875 2.890625 -3.953125 C 3.117188 -3.859375 3.34375 -3.695312 3.5625 -3.46875 L 3.0625 -2.859375 C 2.90625 -3.015625 2.753906 -3.113281 2.609375 -3.15625 C 2.472656 -3.207031 2.328125 -3.234375 2.171875 -3.234375 C 2.015625 -3.234375 1.863281 -3.203125 1.71875 -3.140625 C 1.582031 -3.078125 1.460938 -2.988281 1.359375 -2.875 C 1.265625 -2.769531 1.1875 -2.640625 1.125 -2.484375 C 1.0625 -2.335938 1.03125 -2.179688 1.03125 -2.015625 C 1.03125 -1.835938 1.0625 -1.675781 1.125 -1.53125 C 1.1875 -1.382812 1.265625 -1.253906 1.359375 -1.140625 C 1.460938 -1.035156 1.582031 -0.945312 1.71875 -0.875 C 1.863281 -0.8125 2.015625 -0.78125 2.171875 -0.78125 Z M 2.171875 -0.78125 "/></g></g></g><g fill="#ffffff" fill-opacity="1"><g transform="translate(243.466433, 227.499148)"><g><path d="M 0.265625 -4.03125 L 2.796875 -4.03125 L 2.796875 -3.25 L 1.140625 -3.25 L 1.140625 -2.515625 L 2.59375 -2.515625 L 2.59375 -1.734375 L 1.140625 -1.734375 L 1.140625 -0.78125 L 2.796875 -0.78125 L 2.796875 0 L 0.265625 0 Z M 0.265625 -4.03125 "/></g></g></g><g fill="#ffffff" fill-opacity="1"><g transform="translate(247.713655, 227.499148)"><g><path d="M 3.171875 -2.828125 C 3.171875 -2.703125 3.148438 -2.582031 3.109375 -2.46875 C 3.078125 -2.351562 3.023438 -2.242188 2.953125 -2.140625 C 2.890625 -2.046875 2.8125 -1.960938 2.71875 -1.890625 C 2.632812 -1.816406 2.539062 -1.757812 2.4375 -1.71875 L 3.765625 0 L 2.765625 0 L 1.515625 -1.625 L 1.125 -1.625 L 1.125 0 L 0.265625 0 L 0.265625 -4.03125 L 2 -4.03125 C 2.164062 -4.03125 2.316406 -4 2.453125 -3.9375 C 2.597656 -3.875 2.722656 -3.785156 2.828125 -3.671875 C 2.929688 -3.566406 3.015625 -3.441406 3.078125 -3.296875 C 3.140625 -3.148438 3.171875 -2.992188 3.171875 -2.828125 Z M 1.90625 -2.40625 C 2.007812 -2.40625 2.097656 -2.445312 2.171875 -2.53125 C 2.253906 -2.613281 2.296875 -2.710938 2.296875 -2.828125 C 2.296875 -2.941406 2.253906 -3.039062 2.171875 -3.125 C 2.097656 -3.207031 2.007812 -3.25 1.90625 -3.25 L 1.125 -3.25 L 1.125 -2.40625 Z M 1.90625 -2.40625 "/></g></g></g><g fill="#ffffff" fill-opacity="1"><g transform="translate(252.803484, 227.499148)"><g><path d="M 0.125 -4.03125 L 3.046875 -4.03125 L 3.046875 -3.25 L 2.015625 -3.25 L 2.015625 0 L 1.15625 0 L 1.15625 -3.25 L 0.125 -3.25 Z M 0.125 -4.03125 "/></g></g></g><g fill="#ffffff" fill-opacity="1"><g transform="translate(257.164567, 227.499148)"><g><path d="M 2.75 -4.03125 L 4.4375 0 L 3.5 0 L 3.140625 -0.859375 L 1.421875 -0.859375 L 1.0625 0 L 0.125 0 L 1.8125 -4.03125 Z M 2.8125 -1.65625 L 2.28125 -2.921875 L 1.75 -1.65625 Z M 2.8125 -1.65625 "/></g></g></g><path stroke-linecap="butt" transform="matrix(0.75, 0.000000000000000211, -0.000000000000000211, 0.75, 112.530744, 231.926997)" fill="none" stroke-linejoin="miter" d="M 0.000675319 0.498379 L 202.261105 0.498379 " stroke="#ffffff" stroke-width="1" stroke-opacity="1" stroke-miterlimit="4"/></svg>